<?xml version="1.0" encoding="UTF-8" standalone="no"?>
<!DOCTYPE svg PUBLIC "-//W3C//DTD SVG 1.1//EN"
 "http://www.w3.org/Graphics/SVG/1.1/DTD/svg11.dtd">
<!-- Generated by graphviz version 2.43.0 (0)
 -->
<!-- Title: snakemake_dag Pages: 1 -->
<svg width="843pt" height="548pt"
 viewBox="0.00 0.00 843.25 548.00" xmlns="http://www.w3.org/2000/svg" xmlns:xlink="http://www.w3.org/1999/xlink">
<g id="graph0" class="graph" transform="scale(1 1) rotate(0) translate(4 544)">
<title>snakemake_dag</title>
<polygon fill="white" stroke="transparent" points="-4,4 -4,-544 839.25,-544 839.25,4 -4,4"/>
<!-- 0 -->
<g id="node1" class="node">
<title>0</title>
<path fill="none" stroke="#59d856" stroke-width="2" stroke-dasharray="5,2" d="M427.75,-36C427.75,-36 397.75,-36 397.75,-36 391.75,-36 385.75,-30 385.75,-24 385.75,-24 385.75,-12 385.75,-12 385.75,-6 391.75,0 397.75,0 397.75,0 427.75,0 427.75,0 433.75,0 439.75,-6 439.75,-12 439.75,-12 439.75,-24 439.75,-24 439.75,-30 433.75,-36 427.75,-36"/>
<text text-anchor="middle" x="412.75" y="-15.5" font-family="sans" font-size="10.00">output</text>
</g>
<!-- 1 -->
<g id="node2" class="node">
<title>1</title>
<path fill="none" stroke="#bed856" stroke-width="2" stroke-dasharray="5,2" d="M193.75,-108C193.75,-108 143.75,-108 143.75,-108 137.75,-108 131.75,-102 131.75,-96 131.75,-96 131.75,-84 131.75,-84 131.75,-78 137.75,-72 143.75,-72 143.75,-72 193.75,-72 193.75,-72 199.75,-72 205.75,-78 205.75,-84 205.75,-84 205.75,-96 205.75,-96 205.75,-102 199.75,-108 193.75,-108"/>
<text text-anchor="middle" x="168.75" y="-87.5" font-family="sans" font-size="10.00">create_logo</text>
</g>
<!-- 1&#45;&gt;0 -->
<g id="edge1" class="edge">
<title>1&#45;&gt;0</title>
<path fill="none" stroke="grey" stroke-width="2" d="M205.81,-78.37C251.79,-65.18 329.73,-42.82 375.71,-29.63"/>
<polygon fill="grey" stroke="grey" stroke-width="2" points="376.92,-32.92 385.56,-26.8 374.99,-26.19 376.92,-32.92"/>
</g>
<!-- 2 -->
<g id="node3" class="node">
<title>2</title>
<path fill="none" stroke="#56d88a" stroke-width="2" stroke-dasharray="5,2" d="M170.25,-180C170.25,-180 29.25,-180 29.25,-180 23.25,-180 17.25,-174 17.25,-168 17.25,-168 17.25,-156 17.25,-156 17.25,-150 23.25,-144 29.25,-144 29.25,-144 170.25,-144 170.25,-144 176.25,-144 182.25,-150 182.25,-156 182.25,-156 182.25,-168 182.25,-168 182.25,-174 176.25,-180 170.25,-180"/>
<text text-anchor="middle" x="99.75" y="-165" font-family="sans" font-size="10.00">split_original_reads_by_length</text>
<text text-anchor="middle" x="99.75" y="-154" font-family="sans" font-size="10.00">n: 17</text>
</g>
<!-- 2&#45;&gt;1 -->
<g id="edge9" class="edge">
<title>2&#45;&gt;1</title>
<path fill="none" stroke="grey" stroke-width="2" d="M116.8,-143.7C125.24,-135.14 135.57,-124.66 144.79,-115.3"/>
<polygon fill="grey" stroke="grey" stroke-width="2" points="147.36,-117.68 151.89,-108.1 142.38,-112.77 147.36,-117.68"/>
</g>
<!-- 3 -->
<g id="node4" class="node">
<title>3</title>
<path fill="none" stroke="#88d856" stroke-width="2" stroke-dasharray="5,2" d="M174.25,-252C174.25,-252 75.25,-252 75.25,-252 69.25,-252 63.25,-246 63.25,-240 63.25,-240 63.25,-228 63.25,-228 63.25,-222 69.25,-216 75.25,-216 75.25,-216 174.25,-216 174.25,-216 180.25,-216 186.25,-222 186.25,-228 186.25,-228 186.25,-240 186.25,-240 186.25,-246 180.25,-252 174.25,-252"/>
<text text-anchor="middle" x="124.75" y="-231.5" font-family="sans" font-size="10.00">extract_original_fastq</text>
</g>
<!-- 3&#45;&gt;2 -->
<g id="edge10" class="edge">
<title>3&#45;&gt;2</title>
<path fill="none" stroke="grey" stroke-width="2" d="M118.57,-215.7C115.75,-207.81 112.36,-198.3 109.23,-189.55"/>
<polygon fill="grey" stroke="grey" stroke-width="2" points="112.52,-188.34 105.86,-180.1 105.92,-190.7 112.52,-188.34"/>
</g>
<!-- 10 -->
<g id="node11" class="node">
<title>10</title>
<path fill="none" stroke="#56d88a" stroke-width="2" stroke-dasharray="5,2" d="M353.25,-180C353.25,-180 212.25,-180 212.25,-180 206.25,-180 200.25,-174 200.25,-168 200.25,-168 200.25,-156 200.25,-156 200.25,-150 206.25,-144 212.25,-144 212.25,-144 353.25,-144 353.25,-144 359.25,-144 365.25,-150 365.25,-156 365.25,-156 365.25,-168 365.25,-168 365.25,-174 359.25,-180 353.25,-180"/>
<text text-anchor="middle" x="282.75" y="-165" font-family="sans" font-size="10.00">split_original_reads_by_length</text>
<text text-anchor="middle" x="282.75" y="-154" font-family="sans" font-size="10.00">n: 18</text>
</g>
<!-- 3&#45;&gt;10 -->
<g id="edge17" class="edge">
<title>3&#45;&gt;10</title>
<path fill="none" stroke="grey" stroke-width="2" d="M163.4,-215.88C185,-206.31 212.1,-194.3 235.02,-184.15"/>
<polygon fill="grey" stroke="grey" stroke-width="2" points="236.5,-187.32 244.22,-180.07 233.66,-180.92 236.5,-187.32"/>
</g>
<!-- 4 -->
<g id="node5" class="node">
<title>4</title>
<path fill="none" stroke="#56d8c1" stroke-width="2" stroke-dasharray="5,2" d="M181.25,-324C181.25,-324 68.25,-324 68.25,-324 62.25,-324 56.25,-318 56.25,-312 56.25,-312 56.25,-300 56.25,-300 56.25,-294 62.25,-288 68.25,-288 68.25,-288 181.25,-288 181.25,-288 187.25,-288 193.25,-294 193.25,-300 193.25,-300 193.25,-312 193.25,-312 193.25,-318 187.25,-324 181.25,-324"/>
<text text-anchor="middle" x="124.75" y="-309" font-family="sans" font-size="10.00">extract_fastq_from_bam</text>
<text text-anchor="middle" x="124.75" y="-298" font-family="sans" font-size="10.00">type: mapped</text>
</g>
<!-- 4&#45;&gt;0 -->
<g id="edge5" class="edge">
<title>4&#45;&gt;0</title>
<path fill="none" stroke="grey" stroke-width="2" d="M95.95,-287.85C52.08,-259.42 -23.3,-200.07 7.75,-144 36.96,-91.25 66.53,-93.81 122.75,-72 209.27,-38.44 318.7,-25.83 375.19,-21.33"/>
<polygon fill="grey" stroke="grey" stroke-width="2" points="375.73,-24.8 385.44,-20.56 375.2,-17.82 375.73,-24.8"/>
</g>
<!-- 4&#45;&gt;3 -->
<g id="edge11" class="edge">
<title>4&#45;&gt;3</title>
<path fill="none" stroke="grey" stroke-width="2" d="M124.75,-287.7C124.75,-279.98 124.75,-270.71 124.75,-262.11"/>
<polygon fill="grey" stroke="grey" stroke-width="2" points="128.25,-262.1 124.75,-252.1 121.25,-262.1 128.25,-262.1"/>
</g>
<!-- 5 -->
<g id="node6" class="node">
<title>5</title>
<path fill="none" stroke="#d88d56" stroke-width="2" stroke-dasharray="5,2" d="M190.25,-396C190.25,-396 107.25,-396 107.25,-396 101.25,-396 95.25,-390 95.25,-384 95.25,-384 95.25,-372 95.25,-372 95.25,-366 101.25,-360 107.25,-360 107.25,-360 190.25,-360 190.25,-360 196.25,-360 202.25,-366 202.25,-372 202.25,-372 202.25,-384 202.25,-384 202.25,-390 196.25,-396 190.25,-396"/>
<text text-anchor="middle" x="148.75" y="-375.5" font-family="sans" font-size="10.00">filer_mapped_bam</text>
</g>
<!-- 5&#45;&gt;4 -->
<g id="edge12" class="edge">
<title>5&#45;&gt;4</title>
<path fill="none" stroke="grey" stroke-width="2" d="M142.82,-359.7C140.14,-351.9 136.92,-342.51 133.95,-333.83"/>
<polygon fill="grey" stroke="grey" stroke-width="2" points="137.17,-332.43 130.61,-324.1 130.55,-334.7 137.17,-332.43"/>
</g>
<!-- 6 -->
<g id="node7" class="node">
<title>6</title>
<path fill="none" stroke="#568ad8" stroke-width="2" stroke-dasharray="5,2" d="M361.75,-468C361.75,-468 285.75,-468 285.75,-468 279.75,-468 273.75,-462 273.75,-456 273.75,-456 273.75,-444 273.75,-444 273.75,-438 279.75,-432 285.75,-432 285.75,-432 361.75,-432 361.75,-432 367.75,-432 373.75,-438 373.75,-444 373.75,-444 373.75,-456 373.75,-456 373.75,-462 367.75,-468 361.75,-468"/>
<text text-anchor="middle" x="323.75" y="-447.5" font-family="sans" font-size="10.00">bowtie_map_raw</text>
</g>
<!-- 6&#45;&gt;5 -->
<g id="edge13" class="edge">
<title>6&#45;&gt;5</title>
<path fill="none" stroke="grey" stroke-width="2" d="M280.94,-431.88C256.8,-422.22 226.46,-410.09 200.94,-399.88"/>
<polygon fill="grey" stroke="grey" stroke-width="2" points="202,-396.53 191.42,-396.07 199.4,-403.03 202,-396.53"/>
</g>
<!-- 21 -->
<g id="node22" class="node">
<title>21</title>
<path fill="none" stroke="#56c1d8" stroke-width="2" stroke-dasharray="5,2" d="M382.25,-396C382.25,-396 283.25,-396 283.25,-396 277.25,-396 271.25,-390 271.25,-384 271.25,-384 271.25,-372 271.25,-372 271.25,-366 277.25,-360 283.25,-360 283.25,-360 382.25,-360 382.25,-360 388.25,-360 394.25,-366 394.25,-372 394.25,-372 394.25,-384 394.25,-384 394.25,-390 388.25,-396 382.25,-396"/>
<text text-anchor="middle" x="332.75" y="-375.5" font-family="sans" font-size="10.00">filter_unmapped_bam</text>
</g>
<!-- 6&#45;&gt;21 -->
<g id="edge28" class="edge">
<title>6&#45;&gt;21</title>
<path fill="none" stroke="grey" stroke-width="2" d="M325.97,-431.7C326.97,-423.98 328.16,-414.71 329.26,-406.11"/>
<polygon fill="grey" stroke="grey" stroke-width="2" points="332.75,-406.47 330.55,-396.1 325.8,-405.58 332.75,-406.47"/>
</g>
<!-- 7 -->
<g id="node8" class="node">
<title>7</title>
<path fill="none" stroke="#d8bc56" stroke-width="2" stroke-dasharray="5,2" d="M362.75,-540C362.75,-540 274.75,-540 274.75,-540 268.75,-540 262.75,-534 262.75,-528 262.75,-528 262.75,-516 262.75,-516 262.75,-510 268.75,-504 274.75,-504 274.75,-504 362.75,-504 362.75,-504 368.75,-504 374.75,-510 374.75,-516 374.75,-516 374.75,-528 374.75,-528 374.75,-534 368.75,-540 362.75,-540"/>
<text text-anchor="middle" x="318.75" y="-525" font-family="sans" font-size="10.00">cut_adapt</text>
<text text-anchor="middle" x="318.75" y="-514" font-family="sans" font-size="10.00">dataset_id: reads_1</text>
</g>
<!-- 7&#45;&gt;6 -->
<g id="edge14" class="edge">
<title>7&#45;&gt;6</title>
<path fill="none" stroke="grey" stroke-width="2" d="M319.98,-503.7C320.54,-495.98 321.2,-486.71 321.81,-478.11"/>
<polygon fill="grey" stroke="grey" stroke-width="2" points="325.31,-478.33 322.53,-468.1 318.32,-477.83 325.31,-478.33"/>
</g>
<!-- 8 -->
<g id="node9" class="node">
<title>8</title>
<path fill="none" stroke="#d85656" stroke-width="2" stroke-dasharray="5,2" d="M460.25,-540C460.25,-540 405.25,-540 405.25,-540 399.25,-540 393.25,-534 393.25,-528 393.25,-528 393.25,-516 393.25,-516 393.25,-510 399.25,-504 405.25,-504 405.25,-504 460.25,-504 460.25,-504 466.25,-504 472.25,-510 472.25,-516 472.25,-516 472.25,-528 472.25,-528 472.25,-534 466.25,-540 460.25,-540"/>
<text text-anchor="middle" x="432.75" y="-519.5" font-family="sans" font-size="10.00">bowtie_build</text>
</g>
<!-- 8&#45;&gt;6 -->
<g id="edge15" class="edge">
<title>8&#45;&gt;6</title>
<path fill="none" stroke="grey" stroke-width="2" d="M406.08,-503.88C391.96,-494.81 374.44,-483.55 359.19,-473.76"/>
<polygon fill="grey" stroke="grey" stroke-width="2" points="360.82,-470.65 350.52,-468.19 357.04,-476.54 360.82,-470.65"/>
</g>
<!-- 16 -->
<g id="node17" class="node">
<title>16</title>
<path fill="none" stroke="#568ad8" stroke-width="2" stroke-dasharray="5,2" d="M581.75,-468C581.75,-468 505.75,-468 505.75,-468 499.75,-468 493.75,-462 493.75,-456 493.75,-456 493.75,-444 493.75,-444 493.75,-438 499.75,-432 505.75,-432 505.75,-432 581.75,-432 581.75,-432 587.75,-432 593.75,-438 593.75,-444 593.75,-444 593.75,-456 593.75,-456 593.75,-462 587.75,-468 581.75,-468"/>
<text text-anchor="middle" x="543.75" y="-447.5" font-family="sans" font-size="10.00">bowtie_map_raw</text>
</g>
<!-- 8&#45;&gt;16 -->
<g id="edge24" class="edge">
<title>8&#45;&gt;16</title>
<path fill="none" stroke="grey" stroke-width="2" d="M459.9,-503.88C474.28,-494.81 492.13,-483.55 507.66,-473.76"/>
<polygon fill="grey" stroke="grey" stroke-width="2" points="509.9,-476.48 516.49,-468.19 506.17,-470.56 509.9,-476.48"/>
</g>
<!-- 9 -->
<g id="node10" class="node">
<title>9</title>
<path fill="none" stroke="#bed856" stroke-width="2" stroke-dasharray="5,2" d="M330.75,-108C330.75,-108 280.75,-108 280.75,-108 274.75,-108 268.75,-102 268.75,-96 268.75,-96 268.75,-84 268.75,-84 268.75,-78 274.75,-72 280.75,-72 280.75,-72 330.75,-72 330.75,-72 336.75,-72 342.75,-78 342.75,-84 342.75,-84 342.75,-96 342.75,-96 342.75,-102 336.75,-108 330.75,-108"/>
<text text-anchor="middle" x="305.75" y="-87.5" font-family="sans" font-size="10.00">create_logo</text>
</g>
<!-- 9&#45;&gt;0 -->
<g id="edge2" class="edge">
<title>9&#45;&gt;0</title>
<path fill="none" stroke="grey" stroke-width="2" d="M331.92,-71.88C345.78,-62.81 362.99,-51.55 377.96,-41.76"/>
<polygon fill="grey" stroke="grey" stroke-width="2" points="380.02,-44.59 386.47,-36.19 376.19,-38.74 380.02,-44.59"/>
</g>
<!-- 10&#45;&gt;9 -->
<g id="edge16" class="edge">
<title>10&#45;&gt;9</title>
<path fill="none" stroke="grey" stroke-width="2" d="M288.43,-143.7C291,-135.9 294.08,-126.51 296.93,-117.83"/>
<polygon fill="grey" stroke="grey" stroke-width="2" points="300.33,-118.7 300.13,-108.1 293.68,-116.51 300.33,-118.7"/>
</g>
<!-- 11 -->
<g id="node12" class="node">
<title>11</title>
<path fill="none" stroke="#bed856" stroke-width="2" stroke-dasharray="5,2" d="M544.75,-108C544.75,-108 494.75,-108 494.75,-108 488.75,-108 482.75,-102 482.75,-96 482.75,-96 482.75,-84 482.75,-84 482.75,-78 488.75,-72 494.75,-72 494.75,-72 544.75,-72 544.75,-72 550.75,-72 556.75,-78 556.75,-84 556.75,-84 556.75,-96 556.75,-96 556.75,-102 550.75,-108 544.75,-108"/>
<text text-anchor="middle" x="519.75" y="-87.5" font-family="sans" font-size="10.00">create_logo</text>
</g>
<!-- 11&#45;&gt;0 -->
<g id="edge3" class="edge">
<title>11&#45;&gt;0</title>
<path fill="none" stroke="grey" stroke-width="2" d="M493.57,-71.88C479.71,-62.81 462.51,-51.55 447.54,-41.76"/>
<polygon fill="grey" stroke="grey" stroke-width="2" points="449.31,-38.74 439.02,-36.19 445.48,-44.59 449.31,-38.74"/>
</g>
<!-- 12 -->
<g id="node13" class="node">
<title>12</title>
<path fill="none" stroke="#56d88a" stroke-width="2" stroke-dasharray="5,2" d="M613.25,-180C613.25,-180 472.25,-180 472.25,-180 466.25,-180 460.25,-174 460.25,-168 460.25,-168 460.25,-156 460.25,-156 460.25,-150 466.25,-144 472.25,-144 472.25,-144 613.25,-144 613.25,-144 619.25,-144 625.25,-150 625.25,-156 625.25,-156 625.25,-168 625.25,-168 625.25,-174 619.25,-180 613.25,-180"/>
<text text-anchor="middle" x="542.75" y="-165" font-family="sans" font-size="10.00">split_original_reads_by_length</text>
<text text-anchor="middle" x="542.75" y="-154" font-family="sans" font-size="10.00">n: 17</text>
</g>
<!-- 12&#45;&gt;11 -->
<g id="edge18" class="edge">
<title>12&#45;&gt;11</title>
<path fill="none" stroke="grey" stroke-width="2" d="M537.06,-143.7C534.5,-135.9 531.42,-126.51 528.56,-117.83"/>
<polygon fill="grey" stroke="grey" stroke-width="2" points="531.82,-116.51 525.37,-108.1 525.17,-118.7 531.82,-116.51"/>
</g>
<!-- 13 -->
<g id="node14" class="node">
<title>13</title>
<path fill="none" stroke="#88d856" stroke-width="2" stroke-dasharray="5,2" d="M592.25,-252C592.25,-252 493.25,-252 493.25,-252 487.25,-252 481.25,-246 481.25,-240 481.25,-240 481.25,-228 481.25,-228 481.25,-222 487.25,-216 493.25,-216 493.25,-216 592.25,-216 592.25,-216 598.25,-216 604.25,-222 604.25,-228 604.25,-228 604.25,-240 604.25,-240 604.25,-246 598.25,-252 592.25,-252"/>
<text text-anchor="middle" x="542.75" y="-231.5" font-family="sans" font-size="10.00">extract_original_fastq</text>
</g>
<!-- 13&#45;&gt;12 -->
<g id="edge19" class="edge">
<title>13&#45;&gt;12</title>
<path fill="none" stroke="grey" stroke-width="2" d="M542.75,-215.7C542.75,-207.98 542.75,-198.71 542.75,-190.11"/>
<polygon fill="grey" stroke="grey" stroke-width="2" points="546.25,-190.1 542.75,-180.1 539.25,-190.1 546.25,-190.1"/>
</g>
<!-- 19 -->
<g id="node20" class="node">
<title>19</title>
<path fill="none" stroke="#56d88a" stroke-width="2" stroke-dasharray="5,2" d="M796.25,-180C796.25,-180 655.25,-180 655.25,-180 649.25,-180 643.25,-174 643.25,-168 643.25,-168 643.25,-156 643.25,-156 643.25,-150 649.25,-144 655.25,-144 655.25,-144 796.25,-144 796.25,-144 802.25,-144 808.25,-150 808.25,-156 808.25,-156 808.25,-168 808.25,-168 808.25,-174 802.25,-180 796.25,-180"/>
<text text-anchor="middle" x="725.75" y="-165" font-family="sans" font-size="10.00">split_original_reads_by_length</text>
<text text-anchor="middle" x="725.75" y="-154" font-family="sans" font-size="10.00">n: 18</text>
</g>
<!-- 13&#45;&gt;19 -->
<g id="edge26" class="edge">
<title>13&#45;&gt;19</title>
<path fill="none" stroke="grey" stroke-width="2" d="M587.52,-215.88C612.87,-206.18 644.76,-193.98 671.52,-183.74"/>
<polygon fill="grey" stroke="grey" stroke-width="2" points="673.04,-186.91 681.13,-180.07 670.54,-180.37 673.04,-186.91"/>
</g>
<!-- 14 -->
<g id="node15" class="node">
<title>14</title>
<path fill="none" stroke="#56d8c1" stroke-width="2" stroke-dasharray="5,2" d="M599.25,-324C599.25,-324 486.25,-324 486.25,-324 480.25,-324 474.25,-318 474.25,-312 474.25,-312 474.25,-300 474.25,-300 474.25,-294 480.25,-288 486.25,-288 486.25,-288 599.25,-288 599.25,-288 605.25,-288 611.25,-294 611.25,-300 611.25,-300 611.25,-312 611.25,-312 611.25,-318 605.25,-324 599.25,-324"/>
<text text-anchor="middle" x="542.75" y="-309" font-family="sans" font-size="10.00">extract_fastq_from_bam</text>
<text text-anchor="middle" x="542.75" y="-298" font-family="sans" font-size="10.00">type: mapped</text>
</g>
<!-- 14&#45;&gt;0 -->
<g id="edge7" class="edge">
<title>14&#45;&gt;0</title>
<path fill="none" stroke="grey" stroke-width="2" d="M511.84,-287.85C498.09,-278.81 482.78,-266.56 472.75,-252 428.32,-187.51 416.79,-92.52 413.79,-46.29"/>
<polygon fill="grey" stroke="grey" stroke-width="2" points="417.28,-45.94 413.23,-36.15 410.29,-46.33 417.28,-45.94"/>
</g>
<!-- 14&#45;&gt;13 -->
<g id="edge20" class="edge">
<title>14&#45;&gt;13</title>
<path fill="none" stroke="grey" stroke-width="2" d="M542.75,-287.7C542.75,-279.98 542.75,-270.71 542.75,-262.11"/>
<polygon fill="grey" stroke="grey" stroke-width="2" points="546.25,-262.1 542.75,-252.1 539.25,-262.1 546.25,-262.1"/>
</g>
<!-- 15 -->
<g id="node16" class="node">
<title>15</title>
<path fill="none" stroke="#d88d56" stroke-width="2" stroke-dasharray="5,2" d="M585.25,-396C585.25,-396 502.25,-396 502.25,-396 496.25,-396 490.25,-390 490.25,-384 490.25,-384 490.25,-372 490.25,-372 490.25,-366 496.25,-360 502.25,-360 502.25,-360 585.25,-360 585.25,-360 591.25,-360 597.25,-366 597.25,-372 597.25,-372 597.25,-384 597.25,-384 597.25,-390 591.25,-396 585.25,-396"/>
<text text-anchor="middle" x="543.75" y="-375.5" font-family="sans" font-size="10.00">filer_mapped_bam</text>
</g>
<!-- 15&#45;&gt;14 -->
<g id="edge21" class="edge">
<title>15&#45;&gt;14</title>
<path fill="none" stroke="grey" stroke-width="2" d="M543.5,-359.7C543.39,-351.98 543.26,-342.71 543.14,-334.11"/>
<polygon fill="grey" stroke="grey" stroke-width="2" points="546.64,-334.05 542.99,-324.1 539.64,-334.15 546.64,-334.05"/>
</g>
<!-- 16&#45;&gt;15 -->
<g id="edge22" class="edge">
<title>16&#45;&gt;15</title>
<path fill="none" stroke="grey" stroke-width="2" d="M543.75,-431.7C543.75,-423.98 543.75,-414.71 543.75,-406.11"/>
<polygon fill="grey" stroke="grey" stroke-width="2" points="547.25,-406.1 543.75,-396.1 540.25,-406.1 547.25,-406.1"/>
</g>
<!-- 23 -->
<g id="node24" class="node">
<title>23</title>
<path fill="none" stroke="#56c1d8" stroke-width="2" stroke-dasharray="5,2" d="M771.25,-396C771.25,-396 672.25,-396 672.25,-396 666.25,-396 660.25,-390 660.25,-384 660.25,-384 660.25,-372 660.25,-372 660.25,-366 666.25,-360 672.25,-360 672.25,-360 771.25,-360 771.25,-360 777.25,-360 783.25,-366 783.25,-372 783.25,-372 783.25,-384 783.25,-384 783.25,-390 777.25,-396 771.25,-396"/>
<text text-anchor="middle" x="721.75" y="-375.5" font-family="sans" font-size="10.00">filter_unmapped_bam</text>
</g>
<!-- 16&#45;&gt;23 -->
<g id="edge30" class="edge">
<title>16&#45;&gt;23</title>
<path fill="none" stroke="grey" stroke-width="2" d="M587.29,-431.88C611.95,-422.18 642.97,-409.98 669,-399.74"/>
<polygon fill="grey" stroke="grey" stroke-width="2" points="670.32,-402.99 678.35,-396.07 667.76,-396.47 670.32,-402.99"/>
</g>
<!-- 17 -->
<g id="node18" class="node">
<title>17</title>
<path fill="none" stroke="#d8bc56" stroke-width="2" stroke-dasharray="5,2" d="M589.75,-540C589.75,-540 501.75,-540 501.75,-540 495.75,-540 489.75,-534 489.75,-528 489.75,-528 489.75,-516 489.75,-516 489.75,-510 495.75,-504 501.75,-504 501.75,-504 589.75,-504 589.75,-504 595.75,-504 601.75,-510 601.75,-516 601.75,-516 601.75,-528 601.75,-528 601.75,-534 595.75,-540 589.75,-540"/>
<text text-anchor="middle" x="545.75" y="-525" font-family="sans" font-size="10.00">cut_adapt</text>
<text text-anchor="middle" x="545.75" y="-514" font-family="sans" font-size="10.00">dataset_id: reads_2</text>
</g>
<!-- 17&#45;&gt;16 -->
<g id="edge23" class="edge">
<title>17&#45;&gt;16</title>
<path fill="none" stroke="grey" stroke-width="2" d="M545.25,-503.7C545.03,-495.98 544.77,-486.71 544.52,-478.11"/>
<polygon fill="grey" stroke="grey" stroke-width="2" points="548.02,-478 544.24,-468.1 541.02,-478.2 548.02,-478"/>
</g>
<!-- 18 -->
<g id="node19" class="node">
<title>18</title>
<path fill="none" stroke="#bed856" stroke-width="2" stroke-dasharray="5,2" d="M693.75,-108C693.75,-108 643.75,-108 643.75,-108 637.75,-108 631.75,-102 631.75,-96 631.75,-96 631.75,-84 631.75,-84 631.75,-78 637.75,-72 643.75,-72 643.75,-72 693.75,-72 693.75,-72 699.75,-72 705.75,-78 705.75,-84 705.75,-84 705.75,-96 705.75,-96 705.75,-102 699.75,-108 693.75,-108"/>
<text text-anchor="middle" x="668.75" y="-87.5" font-family="sans" font-size="10.00">create_logo</text>
</g>
<!-- 18&#45;&gt;0 -->
<g id="edge4" class="edge">
<title>18&#45;&gt;0</title>
<path fill="none" stroke="grey" stroke-width="2" d="M631.52,-78.82C582.85,-65.51 498.08,-42.33 449.59,-29.07"/>
<polygon fill="grey" stroke="grey" stroke-width="2" points="450.39,-25.66 439.82,-26.4 448.54,-32.42 450.39,-25.66"/>
</g>
<!-- 19&#45;&gt;18 -->
<g id="edge25" class="edge">
<title>19&#45;&gt;18</title>
<path fill="none" stroke="grey" stroke-width="2" d="M711.66,-143.7C704.83,-135.3 696.49,-125.07 688.99,-115.86"/>
<polygon fill="grey" stroke="grey" stroke-width="2" points="691.7,-113.65 682.68,-108.1 686.28,-118.07 691.7,-113.65"/>
</g>
<!-- 20 -->
<g id="node21" class="node">
<title>20</title>
<path fill="none" stroke="#56d8c1" stroke-width="2" stroke-dasharray="5,2" d="M390.25,-252C390.25,-252 277.25,-252 277.25,-252 271.25,-252 265.25,-246 265.25,-240 265.25,-240 265.25,-228 265.25,-228 265.25,-222 271.25,-216 277.25,-216 277.25,-216 390.25,-216 390.25,-216 396.25,-216 402.25,-222 402.25,-228 402.25,-228 402.25,-240 402.25,-240 402.25,-246 396.25,-252 390.25,-252"/>
<text text-anchor="middle" x="333.75" y="-237" font-family="sans" font-size="10.00">extract_fastq_from_bam</text>
<text text-anchor="middle" x="333.75" y="-226" font-family="sans" font-size="10.00">type: unmapped</text>
</g>
<!-- 20&#45;&gt;0 -->
<g id="edge6" class="edge">
<title>20&#45;&gt;0</title>
<path fill="none" stroke="grey" stroke-width="2" d="M349.81,-215.56C358.06,-205.76 367.63,-192.92 373.75,-180 394.64,-135.86 404.98,-79.44 409.57,-46.45"/>
<polygon fill="grey" stroke="grey" stroke-width="2" points="413.08,-46.59 410.91,-36.22 406.14,-45.68 413.08,-46.59"/>
</g>
<!-- 21&#45;&gt;20 -->
<g id="edge27" class="edge">
<title>21&#45;&gt;20</title>
<path fill="none" stroke="grey" stroke-width="2" d="M332.87,-359.87C333.04,-335.67 333.35,-291.21 333.56,-262.39"/>
<polygon fill="grey" stroke="grey" stroke-width="2" points="337.06,-262.21 333.63,-252.19 330.06,-262.16 337.06,-262.21"/>
</g>
<!-- 22 -->
<g id="node23" class="node">
<title>22</title>
<path fill="none" stroke="#56d8c1" stroke-width="2" stroke-dasharray="5,2" d="M823.25,-324C823.25,-324 710.25,-324 710.25,-324 704.25,-324 698.25,-318 698.25,-312 698.25,-312 698.25,-300 698.25,-300 698.25,-294 704.25,-288 710.25,-288 710.25,-288 823.25,-288 823.25,-288 829.25,-288 835.25,-294 835.25,-300 835.25,-300 835.25,-312 835.25,-312 835.25,-318 829.25,-324 823.25,-324"/>
<text text-anchor="middle" x="766.75" y="-309" font-family="sans" font-size="10.00">extract_fastq_from_bam</text>
<text text-anchor="middle" x="766.75" y="-298" font-family="sans" font-size="10.00">type: unmapped</text>
</g>
<!-- 22&#45;&gt;0 -->
<g id="edge8" class="edge">
<title>22&#45;&gt;0</title>
<path fill="none" stroke="grey" stroke-width="2" d="M780.66,-287.79C803.35,-257.48 843.36,-193.14 817.75,-144 791.94,-94.47 766.37,-93.33 714.75,-72 624.67,-34.77 508.95,-23.68 450.35,-20.39"/>
<polygon fill="grey" stroke="grey" stroke-width="2" points="450.26,-16.88 440.1,-19.86 449.9,-23.87 450.26,-16.88"/>
</g>
<!-- 23&#45;&gt;22 -->
<g id="edge29" class="edge">
<title>23&#45;&gt;22</title>
<path fill="none" stroke="grey" stroke-width="2" d="M732.87,-359.7C738.1,-351.56 744.45,-341.69 750.23,-332.7"/>
<polygon fill="grey" stroke="grey" stroke-width="2" points="753.29,-334.41 755.75,-324.1 747.4,-330.62 753.29,-334.41"/>
</g>
</g>
</svg>
