<?xml version="1.0" encoding="UTF-8" standalone="no"?>
<!DOCTYPE svg PUBLIC "-//W3C//DTD SVG 1.1//EN"
 "http://www.w3.org/Graphics/SVG/1.1/DTD/svg11.dtd">
<!-- Generated by graphviz version 2.43.0 (0)
 -->
<!-- Title: snakemake_dag Pages: 1 -->
<svg width="856pt" height="548pt"
 viewBox="0.00 0.00 855.76 548.00" xmlns="http://www.w3.org/2000/svg" xmlns:xlink="http://www.w3.org/1999/xlink">
<g id="graph0" class="graph" transform="scale(1 1) rotate(0) translate(4 544)">
<title>snakemake_dag</title>
<polygon fill="white" stroke="transparent" points="-4,4 -4,-544 851.76,-544 851.76,4 -4,4"/>
<!-- 0 -->
<g id="node1" class="node">
<title>0</title>
<path fill="none" stroke="#d88d56" stroke-width="2" stroke-dasharray="5,2" d="M427.76,-36C427.76,-36 397.76,-36 397.76,-36 391.76,-36 385.76,-30 385.76,-24 385.76,-24 385.76,-12 385.76,-12 385.76,-6 391.76,0 397.76,0 397.76,0 427.76,0 427.76,0 433.76,0 439.76,-6 439.76,-12 439.76,-12 439.76,-24 439.76,-24 439.76,-30 433.76,-36 427.76,-36"/>
<text text-anchor="middle" x="412.76" y="-15.5" font-family="sans" font-size="10.00">output</text>
</g>
<!-- 1 -->
<g id="node2" class="node">
<title>1</title>
<path fill="none" stroke="#88d856" stroke-width="2" stroke-dasharray="5,2" d="M193.76,-108C193.76,-108 143.76,-108 143.76,-108 137.76,-108 131.76,-102 131.76,-96 131.76,-96 131.76,-84 131.76,-84 131.76,-78 137.76,-72 143.76,-72 143.76,-72 193.76,-72 193.76,-72 199.76,-72 205.76,-78 205.76,-84 205.76,-84 205.76,-96 205.76,-96 205.76,-102 199.76,-108 193.76,-108"/>
<text text-anchor="middle" x="168.76" y="-87.5" font-family="sans" font-size="10.00">create_logo</text>
</g>
<!-- 1&#45;&gt;0 -->
<g id="edge1" class="edge">
<title>1&#45;&gt;0</title>
<path fill="none" stroke="grey" stroke-width="2" d="M205.82,-78.37C251.8,-65.18 329.74,-42.82 375.72,-29.63"/>
<polygon fill="grey" stroke="grey" stroke-width="2" points="376.92,-32.92 385.57,-26.8 374.99,-26.19 376.92,-32.92"/>
</g>
<!-- 2 -->
<g id="node3" class="node">
<title>2</title>
<path fill="none" stroke="#59d856" stroke-width="2" stroke-dasharray="5,2" d="M170.26,-180C170.26,-180 29.26,-180 29.26,-180 23.26,-180 17.26,-174 17.26,-168 17.26,-168 17.26,-156 17.26,-156 17.26,-150 23.26,-144 29.26,-144 29.26,-144 170.26,-144 170.26,-144 176.26,-144 182.26,-150 182.26,-156 182.26,-156 182.26,-168 182.26,-168 182.26,-174 176.26,-180 170.26,-180"/>
<text text-anchor="middle" x="99.76" y="-165" font-family="sans" font-size="10.00">split_original_reads_by_length</text>
<text text-anchor="middle" x="99.76" y="-154" font-family="sans" font-size="10.00">n: 17</text>
</g>
<!-- 2&#45;&gt;1 -->
<g id="edge9" class="edge">
<title>2&#45;&gt;1</title>
<path fill="none" stroke="grey" stroke-width="2" d="M116.81,-143.7C125.25,-135.14 135.58,-124.66 144.8,-115.3"/>
<polygon fill="grey" stroke="grey" stroke-width="2" points="147.37,-117.68 151.9,-108.1 142.38,-112.77 147.37,-117.68"/>
</g>
<!-- 3 -->
<g id="node4" class="node">
<title>3</title>
<path fill="none" stroke="#568ad8" stroke-width="2" stroke-dasharray="5,2" d="M171.26,-252C171.26,-252 72.26,-252 72.26,-252 66.26,-252 60.26,-246 60.26,-240 60.26,-240 60.26,-228 60.26,-228 60.26,-222 66.26,-216 72.26,-216 72.26,-216 171.26,-216 171.26,-216 177.26,-216 183.26,-222 183.26,-228 183.26,-228 183.26,-240 183.26,-240 183.26,-246 177.26,-252 171.26,-252"/>
<text text-anchor="middle" x="121.76" y="-231.5" font-family="sans" font-size="10.00">extract_original_fastq</text>
</g>
<!-- 3&#45;&gt;2 -->
<g id="edge10" class="edge">
<title>3&#45;&gt;2</title>
<path fill="none" stroke="grey" stroke-width="2" d="M116.32,-215.7C113.87,-207.9 110.92,-198.51 108.19,-189.83"/>
<polygon fill="grey" stroke="grey" stroke-width="2" points="111.47,-188.59 105.13,-180.1 104.79,-190.69 111.47,-188.59"/>
</g>
<!-- 10 -->
<g id="node11" class="node">
<title>10</title>
<path fill="none" stroke="#59d856" stroke-width="2" stroke-dasharray="5,2" d="M353.26,-180C353.26,-180 212.26,-180 212.26,-180 206.26,-180 200.26,-174 200.26,-168 200.26,-168 200.26,-156 200.26,-156 200.26,-150 206.26,-144 212.26,-144 212.26,-144 353.26,-144 353.26,-144 359.26,-144 365.26,-150 365.26,-156 365.26,-156 365.26,-168 365.26,-168 365.26,-174 359.26,-180 353.26,-180"/>
<text text-anchor="middle" x="282.76" y="-165" font-family="sans" font-size="10.00">split_original_reads_by_length</text>
<text text-anchor="middle" x="282.76" y="-154" font-family="sans" font-size="10.00">n: 18</text>
</g>
<!-- 3&#45;&gt;10 -->
<g id="edge17" class="edge">
<title>3&#45;&gt;10</title>
<path fill="none" stroke="grey" stroke-width="2" d="M161.14,-215.88C183.15,-206.31 210.77,-194.3 234.12,-184.15"/>
<polygon fill="grey" stroke="grey" stroke-width="2" points="235.73,-187.27 243.5,-180.07 232.93,-180.85 235.73,-187.27"/>
</g>
<!-- 4 -->
<g id="node5" class="node">
<title>4</title>
<path fill="none" stroke="#d8bc56" stroke-width="2" stroke-dasharray="5,2" d="M179.76,-324C179.76,-324 63.76,-324 63.76,-324 57.76,-324 51.76,-318 51.76,-312 51.76,-312 51.76,-300 51.76,-300 51.76,-294 57.76,-288 63.76,-288 63.76,-288 179.76,-288 179.76,-288 185.76,-288 191.76,-294 191.76,-300 191.76,-300 191.76,-312 191.76,-312 191.76,-318 185.76,-324 179.76,-324"/>
<text text-anchor="middle" x="121.76" y="-309" font-family="sans" font-size="10.00">extract_fastq_from_bam</text>
<text text-anchor="middle" x="121.76" y="-298" font-family="sans" font-size="10.00">mapping_status: mapped</text>
</g>
<!-- 4&#45;&gt;0 -->
<g id="edge5" class="edge">
<title>4&#45;&gt;0</title>
<path fill="none" stroke="grey" stroke-width="2" d="M93.93,-287.97C51.06,-259.47 -23.1,-199.73 7.76,-144 36.97,-91.25 66.54,-93.81 122.76,-72 209.27,-38.44 318.71,-25.83 375.2,-21.33"/>
<polygon fill="grey" stroke="grey" stroke-width="2" points="375.74,-24.8 385.44,-20.56 375.21,-17.82 375.74,-24.8"/>
</g>
<!-- 4&#45;&gt;3 -->
<g id="edge11" class="edge">
<title>4&#45;&gt;3</title>
<path fill="none" stroke="grey" stroke-width="2" d="M121.76,-287.7C121.76,-279.98 121.76,-270.71 121.76,-262.11"/>
<polygon fill="grey" stroke="grey" stroke-width="2" points="125.26,-262.1 121.76,-252.1 118.26,-262.1 125.26,-262.1"/>
</g>
<!-- 5 -->
<g id="node6" class="node">
<title>5</title>
<path fill="none" stroke="#bed856" stroke-width="2" stroke-dasharray="5,2" d="M185.26,-396C185.26,-396 102.26,-396 102.26,-396 96.26,-396 90.26,-390 90.26,-384 90.26,-384 90.26,-372 90.26,-372 90.26,-366 96.26,-360 102.26,-360 102.26,-360 185.26,-360 185.26,-360 191.26,-360 197.26,-366 197.26,-372 197.26,-372 197.26,-384 197.26,-384 197.26,-390 191.26,-396 185.26,-396"/>
<text text-anchor="middle" x="143.76" y="-375.5" font-family="sans" font-size="10.00">filer_mapped_bam</text>
</g>
<!-- 5&#45;&gt;4 -->
<g id="edge12" class="edge">
<title>5&#45;&gt;4</title>
<path fill="none" stroke="grey" stroke-width="2" d="M138.32,-359.7C135.87,-351.9 132.92,-342.51 130.19,-333.83"/>
<polygon fill="grey" stroke="grey" stroke-width="2" points="133.47,-332.59 127.13,-324.1 126.79,-334.69 133.47,-332.59"/>
</g>
<!-- 6 -->
<g id="node7" class="node">
<title>6</title>
<path fill="none" stroke="#56d8c1" stroke-width="2" stroke-dasharray="5,2" d="M355.76,-468C355.76,-468 279.76,-468 279.76,-468 273.76,-468 267.76,-462 267.76,-456 267.76,-456 267.76,-444 267.76,-444 267.76,-438 273.76,-432 279.76,-432 279.76,-432 355.76,-432 355.76,-432 361.76,-432 367.76,-438 367.76,-444 367.76,-444 367.76,-456 367.76,-456 367.76,-462 361.76,-468 355.76,-468"/>
<text text-anchor="middle" x="317.76" y="-447.5" font-family="sans" font-size="10.00">bowtie_map_raw</text>
</g>
<!-- 6&#45;&gt;5 -->
<g id="edge13" class="edge">
<title>6&#45;&gt;5</title>
<path fill="none" stroke="grey" stroke-width="2" d="M275.19,-431.88C251.19,-422.22 221.03,-410.09 195.65,-399.88"/>
<polygon fill="grey" stroke="grey" stroke-width="2" points="196.77,-396.55 186.18,-396.07 194.16,-403.05 196.77,-396.55"/>
</g>
<!-- 21 -->
<g id="node22" class="node">
<title>21</title>
<path fill="none" stroke="#d85656" stroke-width="2" stroke-dasharray="5,2" d="M370.26,-396C370.26,-396 271.26,-396 271.26,-396 265.26,-396 259.26,-390 259.26,-384 259.26,-384 259.26,-372 259.26,-372 259.26,-366 265.26,-360 271.26,-360 271.26,-360 370.26,-360 370.26,-360 376.26,-360 382.26,-366 382.26,-372 382.26,-372 382.26,-384 382.26,-384 382.26,-390 376.26,-396 370.26,-396"/>
<text text-anchor="middle" x="320.76" y="-375.5" font-family="sans" font-size="10.00">filter_unmapped_bam</text>
</g>
<!-- 6&#45;&gt;21 -->
<g id="edge28" class="edge">
<title>6&#45;&gt;21</title>
<path fill="none" stroke="grey" stroke-width="2" d="M318.5,-431.7C318.83,-423.98 319.23,-414.71 319.6,-406.11"/>
<polygon fill="grey" stroke="grey" stroke-width="2" points="323.09,-406.25 320.02,-396.1 316.1,-405.95 323.09,-406.25"/>
</g>
<!-- 7 -->
<g id="node8" class="node">
<title>7</title>
<path fill="none" stroke="#56c1d8" stroke-width="2" stroke-dasharray="5,2" d="M360.76,-540C360.76,-540 272.76,-540 272.76,-540 266.76,-540 260.76,-534 260.76,-528 260.76,-528 260.76,-516 260.76,-516 260.76,-510 266.76,-504 272.76,-504 272.76,-504 360.76,-504 360.76,-504 366.76,-504 372.76,-510 372.76,-516 372.76,-516 372.76,-528 372.76,-528 372.76,-534 366.76,-540 360.76,-540"/>
<text text-anchor="middle" x="316.76" y="-525" font-family="sans" font-size="10.00">cut_adapt</text>
<text text-anchor="middle" x="316.76" y="-514" font-family="sans" font-size="10.00">dataset_id: reads_1</text>
</g>
<!-- 7&#45;&gt;6 -->
<g id="edge14" class="edge">
<title>7&#45;&gt;6</title>
<path fill="none" stroke="grey" stroke-width="2" d="M317,-503.7C317.11,-495.98 317.25,-486.71 317.37,-478.11"/>
<polygon fill="grey" stroke="grey" stroke-width="2" points="320.87,-478.15 317.51,-468.1 313.87,-478.05 320.87,-478.15"/>
</g>
<!-- 8 -->
<g id="node9" class="node">
<title>8</title>
<path fill="none" stroke="#56d88a" stroke-width="2" stroke-dasharray="5,2" d="M458.26,-540C458.26,-540 403.26,-540 403.26,-540 397.26,-540 391.26,-534 391.26,-528 391.26,-528 391.26,-516 391.26,-516 391.26,-510 397.26,-504 403.26,-504 403.26,-504 458.26,-504 458.26,-504 464.26,-504 470.26,-510 470.26,-516 470.26,-516 470.26,-528 470.26,-528 470.26,-534 464.26,-540 458.26,-540"/>
<text text-anchor="middle" x="430.76" y="-519.5" font-family="sans" font-size="10.00">bowtie_build</text>
</g>
<!-- 8&#45;&gt;6 -->
<g id="edge15" class="edge">
<title>8&#45;&gt;6</title>
<path fill="none" stroke="grey" stroke-width="2" d="M403.11,-503.88C388.34,-494.72 369.97,-483.34 354.05,-473.48"/>
<polygon fill="grey" stroke="grey" stroke-width="2" points="355.85,-470.48 345.51,-468.19 352.16,-476.43 355.85,-470.48"/>
</g>
<!-- 16 -->
<g id="node17" class="node">
<title>16</title>
<path fill="none" stroke="#56d8c1" stroke-width="2" stroke-dasharray="5,2" d="M580.76,-468C580.76,-468 504.76,-468 504.76,-468 498.76,-468 492.76,-462 492.76,-456 492.76,-456 492.76,-444 492.76,-444 492.76,-438 498.76,-432 504.76,-432 504.76,-432 580.76,-432 580.76,-432 586.76,-432 592.76,-438 592.76,-444 592.76,-444 592.76,-456 592.76,-456 592.76,-462 586.76,-468 580.76,-468"/>
<text text-anchor="middle" x="542.76" y="-447.5" font-family="sans" font-size="10.00">bowtie_map_raw</text>
</g>
<!-- 8&#45;&gt;16 -->
<g id="edge24" class="edge">
<title>8&#45;&gt;16</title>
<path fill="none" stroke="grey" stroke-width="2" d="M458.16,-503.88C472.66,-494.81 490.67,-483.55 506.34,-473.76"/>
<polygon fill="grey" stroke="grey" stroke-width="2" points="508.63,-476.46 515.25,-468.19 504.92,-470.52 508.63,-476.46"/>
</g>
<!-- 9 -->
<g id="node10" class="node">
<title>9</title>
<path fill="none" stroke="#88d856" stroke-width="2" stroke-dasharray="5,2" d="M330.76,-108C330.76,-108 280.76,-108 280.76,-108 274.76,-108 268.76,-102 268.76,-96 268.76,-96 268.76,-84 268.76,-84 268.76,-78 274.76,-72 280.76,-72 280.76,-72 330.76,-72 330.76,-72 336.76,-72 342.76,-78 342.76,-84 342.76,-84 342.76,-96 342.76,-96 342.76,-102 336.76,-108 330.76,-108"/>
<text text-anchor="middle" x="305.76" y="-87.5" font-family="sans" font-size="10.00">create_logo</text>
</g>
<!-- 9&#45;&gt;0 -->
<g id="edge2" class="edge">
<title>9&#45;&gt;0</title>
<path fill="none" stroke="grey" stroke-width="2" d="M331.93,-71.88C345.79,-62.81 363,-51.55 377.97,-41.76"/>
<polygon fill="grey" stroke="grey" stroke-width="2" points="380.03,-44.59 386.48,-36.19 376.2,-38.74 380.03,-44.59"/>
</g>
<!-- 10&#45;&gt;9 -->
<g id="edge16" class="edge">
<title>10&#45;&gt;9</title>
<path fill="none" stroke="grey" stroke-width="2" d="M288.44,-143.7C291.01,-135.9 294.09,-126.51 296.94,-117.83"/>
<polygon fill="grey" stroke="grey" stroke-width="2" points="300.34,-118.7 300.14,-108.1 293.69,-116.51 300.34,-118.7"/>
</g>
<!-- 11 -->
<g id="node12" class="node">
<title>11</title>
<path fill="none" stroke="#88d856" stroke-width="2" stroke-dasharray="5,2" d="M544.76,-108C544.76,-108 494.76,-108 494.76,-108 488.76,-108 482.76,-102 482.76,-96 482.76,-96 482.76,-84 482.76,-84 482.76,-78 488.76,-72 494.76,-72 494.76,-72 544.76,-72 544.76,-72 550.76,-72 556.76,-78 556.76,-84 556.76,-84 556.76,-96 556.76,-96 556.76,-102 550.76,-108 544.76,-108"/>
<text text-anchor="middle" x="519.76" y="-87.5" font-family="sans" font-size="10.00">create_logo</text>
</g>
<!-- 11&#45;&gt;0 -->
<g id="edge3" class="edge">
<title>11&#45;&gt;0</title>
<path fill="none" stroke="grey" stroke-width="2" d="M493.58,-71.88C479.72,-62.81 462.52,-51.55 447.55,-41.76"/>
<polygon fill="grey" stroke="grey" stroke-width="2" points="449.32,-38.74 439.03,-36.19 445.49,-44.59 449.32,-38.74"/>
</g>
<!-- 12 -->
<g id="node13" class="node">
<title>12</title>
<path fill="none" stroke="#59d856" stroke-width="2" stroke-dasharray="5,2" d="M613.26,-180C613.26,-180 472.26,-180 472.26,-180 466.26,-180 460.26,-174 460.26,-168 460.26,-168 460.26,-156 460.26,-156 460.26,-150 466.26,-144 472.26,-144 472.26,-144 613.26,-144 613.26,-144 619.26,-144 625.26,-150 625.26,-156 625.26,-156 625.26,-168 625.26,-168 625.26,-174 619.26,-180 613.26,-180"/>
<text text-anchor="middle" x="542.76" y="-165" font-family="sans" font-size="10.00">split_original_reads_by_length</text>
<text text-anchor="middle" x="542.76" y="-154" font-family="sans" font-size="10.00">n: 17</text>
</g>
<!-- 12&#45;&gt;11 -->
<g id="edge18" class="edge">
<title>12&#45;&gt;11</title>
<path fill="none" stroke="grey" stroke-width="2" d="M537.07,-143.7C534.51,-135.9 531.42,-126.51 528.57,-117.83"/>
<polygon fill="grey" stroke="grey" stroke-width="2" points="531.82,-116.51 525.38,-108.1 525.17,-118.7 531.82,-116.51"/>
</g>
<!-- 13 -->
<g id="node14" class="node">
<title>13</title>
<path fill="none" stroke="#568ad8" stroke-width="2" stroke-dasharray="5,2" d="M592.26,-252C592.26,-252 493.26,-252 493.26,-252 487.26,-252 481.26,-246 481.26,-240 481.26,-240 481.26,-228 481.26,-228 481.26,-222 487.26,-216 493.26,-216 493.26,-216 592.26,-216 592.26,-216 598.26,-216 604.26,-222 604.26,-228 604.26,-228 604.26,-240 604.26,-240 604.26,-246 598.26,-252 592.26,-252"/>
<text text-anchor="middle" x="542.76" y="-231.5" font-family="sans" font-size="10.00">extract_original_fastq</text>
</g>
<!-- 13&#45;&gt;12 -->
<g id="edge19" class="edge">
<title>13&#45;&gt;12</title>
<path fill="none" stroke="grey" stroke-width="2" d="M542.76,-215.7C542.76,-207.98 542.76,-198.71 542.76,-190.11"/>
<polygon fill="grey" stroke="grey" stroke-width="2" points="546.26,-190.1 542.76,-180.1 539.26,-190.1 546.26,-190.1"/>
</g>
<!-- 19 -->
<g id="node20" class="node">
<title>19</title>
<path fill="none" stroke="#59d856" stroke-width="2" stroke-dasharray="5,2" d="M796.26,-180C796.26,-180 655.26,-180 655.26,-180 649.26,-180 643.26,-174 643.26,-168 643.26,-168 643.26,-156 643.26,-156 643.26,-150 649.26,-144 655.26,-144 655.26,-144 796.26,-144 796.26,-144 802.26,-144 808.26,-150 808.26,-156 808.26,-156 808.26,-168 808.26,-168 808.26,-174 802.26,-180 796.26,-180"/>
<text text-anchor="middle" x="725.76" y="-165" font-family="sans" font-size="10.00">split_original_reads_by_length</text>
<text text-anchor="middle" x="725.76" y="-154" font-family="sans" font-size="10.00">n: 18</text>
</g>
<!-- 13&#45;&gt;19 -->
<g id="edge26" class="edge">
<title>13&#45;&gt;19</title>
<path fill="none" stroke="grey" stroke-width="2" d="M587.52,-215.88C612.87,-206.18 644.77,-193.98 671.53,-183.74"/>
<polygon fill="grey" stroke="grey" stroke-width="2" points="673.05,-186.91 681.14,-180.07 670.55,-180.37 673.05,-186.91"/>
</g>
<!-- 14 -->
<g id="node15" class="node">
<title>14</title>
<path fill="none" stroke="#d8bc56" stroke-width="2" stroke-dasharray="5,2" d="M600.76,-324C600.76,-324 484.76,-324 484.76,-324 478.76,-324 472.76,-318 472.76,-312 472.76,-312 472.76,-300 472.76,-300 472.76,-294 478.76,-288 484.76,-288 484.76,-288 600.76,-288 600.76,-288 606.76,-288 612.76,-294 612.76,-300 612.76,-300 612.76,-312 612.76,-312 612.76,-318 606.76,-324 600.76,-324"/>
<text text-anchor="middle" x="542.76" y="-309" font-family="sans" font-size="10.00">extract_fastq_from_bam</text>
<text text-anchor="middle" x="542.76" y="-298" font-family="sans" font-size="10.00">mapping_status: mapped</text>
</g>
<!-- 14&#45;&gt;0 -->
<g id="edge7" class="edge">
<title>14&#45;&gt;0</title>
<path fill="none" stroke="grey" stroke-width="2" d="M511.85,-287.85C498.1,-278.81 482.79,-266.56 472.76,-252 449.59,-218.37 426.81,-100.19 417.34,-46.23"/>
<polygon fill="grey" stroke="grey" stroke-width="2" points="420.73,-45.3 415.58,-36.04 413.83,-46.49 420.73,-45.3"/>
</g>
<!-- 14&#45;&gt;13 -->
<g id="edge20" class="edge">
<title>14&#45;&gt;13</title>
<path fill="none" stroke="grey" stroke-width="2" d="M542.76,-287.7C542.76,-279.98 542.76,-270.71 542.76,-262.11"/>
<polygon fill="grey" stroke="grey" stroke-width="2" points="546.26,-262.1 542.76,-252.1 539.26,-262.1 546.26,-262.1"/>
</g>
<!-- 15 -->
<g id="node16" class="node">
<title>15</title>
<path fill="none" stroke="#bed856" stroke-width="2" stroke-dasharray="5,2" d="M584.26,-396C584.26,-396 501.26,-396 501.26,-396 495.26,-396 489.26,-390 489.26,-384 489.26,-384 489.26,-372 489.26,-372 489.26,-366 495.26,-360 501.26,-360 501.26,-360 584.26,-360 584.26,-360 590.26,-360 596.26,-366 596.26,-372 596.26,-372 596.26,-384 596.26,-384 596.26,-390 590.26,-396 584.26,-396"/>
<text text-anchor="middle" x="542.76" y="-375.5" font-family="sans" font-size="10.00">filer_mapped_bam</text>
</g>
<!-- 15&#45;&gt;14 -->
<g id="edge21" class="edge">
<title>15&#45;&gt;14</title>
<path fill="none" stroke="grey" stroke-width="2" d="M542.76,-359.7C542.76,-351.98 542.76,-342.71 542.76,-334.11"/>
<polygon fill="grey" stroke="grey" stroke-width="2" points="546.26,-334.1 542.76,-324.1 539.26,-334.1 546.26,-334.1"/>
</g>
<!-- 16&#45;&gt;15 -->
<g id="edge22" class="edge">
<title>16&#45;&gt;15</title>
<path fill="none" stroke="grey" stroke-width="2" d="M542.76,-431.7C542.76,-423.98 542.76,-414.71 542.76,-406.11"/>
<polygon fill="grey" stroke="grey" stroke-width="2" points="546.26,-406.1 542.76,-396.1 539.26,-406.1 546.26,-406.1"/>
</g>
<!-- 23 -->
<g id="node24" class="node">
<title>23</title>
<path fill="none" stroke="#d85656" stroke-width="2" stroke-dasharray="5,2" d="M773.26,-396C773.26,-396 674.26,-396 674.26,-396 668.26,-396 662.26,-390 662.26,-384 662.26,-384 662.26,-372 662.26,-372 662.26,-366 668.26,-360 674.26,-360 674.26,-360 773.26,-360 773.26,-360 779.26,-360 785.26,-366 785.26,-372 785.26,-372 785.26,-384 785.26,-384 785.26,-390 779.26,-396 773.26,-396"/>
<text text-anchor="middle" x="723.76" y="-375.5" font-family="sans" font-size="10.00">filter_unmapped_bam</text>
</g>
<!-- 16&#45;&gt;23 -->
<g id="edge30" class="edge">
<title>16&#45;&gt;23</title>
<path fill="none" stroke="grey" stroke-width="2" d="M587.03,-431.88C612.11,-422.18 643.65,-409.98 670.12,-399.74"/>
<polygon fill="grey" stroke="grey" stroke-width="2" points="671.56,-402.94 679.62,-396.07 669.03,-396.41 671.56,-402.94"/>
</g>
<!-- 17 -->
<g id="node18" class="node">
<title>17</title>
<path fill="none" stroke="#56c1d8" stroke-width="2" stroke-dasharray="5,2" d="M587.76,-540C587.76,-540 499.76,-540 499.76,-540 493.76,-540 487.76,-534 487.76,-528 487.76,-528 487.76,-516 487.76,-516 487.76,-510 493.76,-504 499.76,-504 499.76,-504 587.76,-504 587.76,-504 593.76,-504 599.76,-510 599.76,-516 599.76,-516 599.76,-528 599.76,-528 599.76,-534 593.76,-540 587.76,-540"/>
<text text-anchor="middle" x="543.76" y="-525" font-family="sans" font-size="10.00">cut_adapt</text>
<text text-anchor="middle" x="543.76" y="-514" font-family="sans" font-size="10.00">dataset_id: reads_2</text>
</g>
<!-- 17&#45;&gt;16 -->
<g id="edge23" class="edge">
<title>17&#45;&gt;16</title>
<path fill="none" stroke="grey" stroke-width="2" d="M543.51,-503.7C543.4,-495.98 543.27,-486.71 543.14,-478.11"/>
<polygon fill="grey" stroke="grey" stroke-width="2" points="546.64,-478.05 543,-468.1 539.64,-478.15 546.64,-478.05"/>
</g>
<!-- 18 -->
<g id="node19" class="node">
<title>18</title>
<path fill="none" stroke="#88d856" stroke-width="2" stroke-dasharray="5,2" d="M693.76,-108C693.76,-108 643.76,-108 643.76,-108 637.76,-108 631.76,-102 631.76,-96 631.76,-96 631.76,-84 631.76,-84 631.76,-78 637.76,-72 643.76,-72 643.76,-72 693.76,-72 693.76,-72 699.76,-72 705.76,-78 705.76,-84 705.76,-84 705.76,-96 705.76,-96 705.76,-102 699.76,-108 693.76,-108"/>
<text text-anchor="middle" x="668.76" y="-87.5" font-family="sans" font-size="10.00">create_logo</text>
</g>
<!-- 18&#45;&gt;0 -->
<g id="edge4" class="edge">
<title>18&#45;&gt;0</title>
<path fill="none" stroke="grey" stroke-width="2" d="M631.53,-78.82C582.85,-65.51 498.09,-42.33 449.6,-29.07"/>
<polygon fill="grey" stroke="grey" stroke-width="2" points="450.4,-25.66 439.83,-26.4 448.55,-32.42 450.4,-25.66"/>
</g>
<!-- 19&#45;&gt;18 -->
<g id="edge25" class="edge">
<title>19&#45;&gt;18</title>
<path fill="none" stroke="grey" stroke-width="2" d="M711.67,-143.7C704.83,-135.3 696.5,-125.07 689,-115.86"/>
<polygon fill="grey" stroke="grey" stroke-width="2" points="691.71,-113.65 682.69,-108.1 686.29,-118.07 691.71,-113.65"/>
</g>
<!-- 20 -->
<g id="node21" class="node">
<title>20</title>
<path fill="none" stroke="#d8bc56" stroke-width="2" stroke-dasharray="5,2" d="M390.76,-252C390.76,-252 262.76,-252 262.76,-252 256.76,-252 250.76,-246 250.76,-240 250.76,-240 250.76,-228 250.76,-228 250.76,-222 256.76,-216 262.76,-216 262.76,-216 390.76,-216 390.76,-216 396.76,-216 402.76,-222 402.76,-228 402.76,-228 402.76,-240 402.76,-240 402.76,-246 396.76,-252 390.76,-252"/>
<text text-anchor="middle" x="326.76" y="-237" font-family="sans" font-size="10.00">extract_fastq_from_bam</text>
<text text-anchor="middle" x="326.76" y="-226" font-family="sans" font-size="10.00">mapping_status: unmapped</text>
</g>
<!-- 20&#45;&gt;0 -->
<g id="edge6" class="edge">
<title>20&#45;&gt;0</title>
<path fill="none" stroke="grey" stroke-width="2" d="M346.2,-215.57C355.81,-205.96 366.81,-193.3 373.76,-180 396.38,-136.72 406.15,-80.02 410.16,-46.75"/>
<polygon fill="grey" stroke="grey" stroke-width="2" points="413.69,-46.74 411.31,-36.41 406.73,-45.96 413.69,-46.74"/>
</g>
<!-- 21&#45;&gt;20 -->
<g id="edge27" class="edge">
<title>21&#45;&gt;20</title>
<path fill="none" stroke="grey" stroke-width="2" d="M321.48,-359.87C322.5,-335.67 324.38,-291.21 325.6,-262.39"/>
<polygon fill="grey" stroke="grey" stroke-width="2" points="329.11,-262.33 326.03,-252.19 322.11,-262.03 329.11,-262.33"/>
</g>
<!-- 22 -->
<g id="node23" class="node">
<title>22</title>
<path fill="none" stroke="#d8bc56" stroke-width="2" stroke-dasharray="5,2" d="M835.76,-324C835.76,-324 707.76,-324 707.76,-324 701.76,-324 695.76,-318 695.76,-312 695.76,-312 695.76,-300 695.76,-300 695.76,-294 701.76,-288 707.76,-288 707.76,-288 835.76,-288 835.76,-288 841.76,-288 847.76,-294 847.76,-300 847.76,-300 847.76,-312 847.76,-312 847.76,-318 841.76,-324 835.76,-324"/>
<text text-anchor="middle" x="771.76" y="-309" font-family="sans" font-size="10.00">extract_fastq_from_bam</text>
<text text-anchor="middle" x="771.76" y="-298" font-family="sans" font-size="10.00">mapping_status: unmapped</text>
</g>
<!-- 22&#45;&gt;0 -->
<g id="edge8" class="edge">
<title>22&#45;&gt;0</title>
<path fill="none" stroke="grey" stroke-width="2" d="M784.78,-287.7C805.97,-257.26 843.15,-192.72 817.76,-144 791.95,-94.47 766.38,-93.33 714.76,-72 624.68,-34.77 508.96,-23.68 450.36,-20.39"/>
<polygon fill="grey" stroke="grey" stroke-width="2" points="450.27,-16.88 440.1,-19.86 449.91,-23.87 450.27,-16.88"/>
</g>
<!-- 23&#45;&gt;22 -->
<g id="edge29" class="edge">
<title>23&#45;&gt;22</title>
<path fill="none" stroke="grey" stroke-width="2" d="M735.62,-359.7C741.26,-351.47 748.11,-341.48 754.33,-332.42"/>
<polygon fill="grey" stroke="grey" stroke-width="2" points="757.26,-334.33 760.03,-324.1 751.49,-330.37 757.26,-334.33"/>
</g>
</g>
</svg>
