<?xml version="1.0" encoding="UTF-8" standalone="no"?>
<!DOCTYPE svg PUBLIC "-//W3C//DTD SVG 1.1//EN"
 "http://www.w3.org/Graphics/SVG/1.1/DTD/svg11.dtd">
<!-- Generated by graphviz version 2.43.0 (0)
 -->
<!-- Title: snakemake_dag Pages: 1 -->
<svg width="832pt" height="548pt"
 viewBox="0.00 0.00 832.47 548.00" xmlns="http://www.w3.org/2000/svg" xmlns:xlink="http://www.w3.org/1999/xlink">
<g id="graph0" class="graph" transform="scale(1 1) rotate(0) translate(4 544)">
<title>snakemake_dag</title>
<polygon fill="white" stroke="transparent" points="-4,4 -4,-544 828.47,-544 828.47,4 -4,4"/>
<!-- 0 -->
<g id="node1" class="node">
<title>0</title>
<path fill="none" stroke="#56d8c1" stroke-width="2" stroke-dasharray="5,2" d="M427.75,-36C427.75,-36 397.75,-36 397.75,-36 391.75,-36 385.75,-30 385.75,-24 385.75,-24 385.75,-12 385.75,-12 385.75,-6 391.75,0 397.75,0 397.75,0 427.75,0 427.75,0 433.75,0 439.75,-6 439.75,-12 439.75,-12 439.75,-24 439.75,-24 439.75,-30 433.75,-36 427.75,-36"/>
<text text-anchor="middle" x="412.75" y="-15.5" font-family="sans" font-size="10.00">output</text>
</g>
<!-- 1 -->
<g id="node2" class="node">
<title>1</title>
<path fill="none" stroke="#56c1d8" stroke-width="2" stroke-dasharray="5,2" d="M193.75,-108C193.75,-108 143.75,-108 143.75,-108 137.75,-108 131.75,-102 131.75,-96 131.75,-96 131.75,-84 131.75,-84 131.75,-78 137.75,-72 143.75,-72 143.75,-72 193.75,-72 193.75,-72 199.75,-72 205.75,-78 205.75,-84 205.75,-84 205.75,-96 205.75,-96 205.75,-102 199.75,-108 193.75,-108"/>
<text text-anchor="middle" x="168.75" y="-87.5" font-family="sans" font-size="10.00">create_logo</text>
</g>
<!-- 1&#45;&gt;0 -->
<g id="edge1" class="edge">
<title>1&#45;&gt;0</title>
<path fill="none" stroke="grey" stroke-width="2" d="M205.81,-78.37C251.79,-65.18 329.73,-42.82 375.71,-29.63"/>
<polygon fill="grey" stroke="grey" stroke-width="2" points="376.92,-32.92 385.56,-26.8 374.99,-26.19 376.92,-32.92"/>
</g>
<!-- 2 -->
<g id="node3" class="node">
<title>2</title>
<path fill="none" stroke="#d8bc56" stroke-width="2" stroke-dasharray="5,2" d="M170.25,-180C170.25,-180 29.25,-180 29.25,-180 23.25,-180 17.25,-174 17.25,-168 17.25,-168 17.25,-156 17.25,-156 17.25,-150 23.25,-144 29.25,-144 29.25,-144 170.25,-144 170.25,-144 176.25,-144 182.25,-150 182.25,-156 182.25,-156 182.25,-168 182.25,-168 182.25,-174 176.25,-180 170.25,-180"/>
<text text-anchor="middle" x="99.75" y="-165" font-family="sans" font-size="10.00">split_original_reads_by_length</text>
<text text-anchor="middle" x="99.75" y="-154" font-family="sans" font-size="10.00">n: 17</text>
</g>
<!-- 2&#45;&gt;1 -->
<g id="edge9" class="edge">
<title>2&#45;&gt;1</title>
<path fill="none" stroke="grey" stroke-width="2" d="M116.8,-143.7C125.24,-135.14 135.57,-124.66 144.79,-115.3"/>
<polygon fill="grey" stroke="grey" stroke-width="2" points="147.36,-117.68 151.89,-108.1 142.38,-112.77 147.36,-117.68"/>
</g>
<!-- 3 -->
<g id="node4" class="node">
<title>3</title>
<path fill="none" stroke="#568ad8" stroke-width="2" stroke-dasharray="5,2" d="M174.25,-252C174.25,-252 75.25,-252 75.25,-252 69.25,-252 63.25,-246 63.25,-240 63.25,-240 63.25,-228 63.25,-228 63.25,-222 69.25,-216 75.25,-216 75.25,-216 174.25,-216 174.25,-216 180.25,-216 186.25,-222 186.25,-228 186.25,-228 186.25,-240 186.25,-240 186.25,-246 180.25,-252 174.25,-252"/>
<text text-anchor="middle" x="124.75" y="-231.5" font-family="sans" font-size="10.00">extract_original_fastq</text>
</g>
<!-- 3&#45;&gt;2 -->
<g id="edge10" class="edge">
<title>3&#45;&gt;2</title>
<path fill="none" stroke="grey" stroke-width="2" d="M118.57,-215.7C115.75,-207.81 112.36,-198.3 109.23,-189.55"/>
<polygon fill="grey" stroke="grey" stroke-width="2" points="112.52,-188.34 105.86,-180.1 105.92,-190.7 112.52,-188.34"/>
</g>
<!-- 9 -->
<g id="node10" class="node">
<title>9</title>
<path fill="none" stroke="#d8bc56" stroke-width="2" stroke-dasharray="5,2" d="M353.25,-180C353.25,-180 212.25,-180 212.25,-180 206.25,-180 200.25,-174 200.25,-168 200.25,-168 200.25,-156 200.25,-156 200.25,-150 206.25,-144 212.25,-144 212.25,-144 353.25,-144 353.25,-144 359.25,-144 365.25,-150 365.25,-156 365.25,-156 365.25,-168 365.25,-168 365.25,-174 359.25,-180 353.25,-180"/>
<text text-anchor="middle" x="282.75" y="-165" font-family="sans" font-size="10.00">split_original_reads_by_length</text>
<text text-anchor="middle" x="282.75" y="-154" font-family="sans" font-size="10.00">n: 18</text>
</g>
<!-- 3&#45;&gt;9 -->
<g id="edge16" class="edge">
<title>3&#45;&gt;9</title>
<path fill="none" stroke="grey" stroke-width="2" d="M163.4,-215.88C185,-206.31 212.1,-194.3 235.02,-184.15"/>
<polygon fill="grey" stroke="grey" stroke-width="2" points="236.5,-187.32 244.22,-180.07 233.66,-180.92 236.5,-187.32"/>
</g>
<!-- 4 -->
<g id="node5" class="node">
<title>4</title>
<path fill="none" stroke="#d85656" stroke-width="2" stroke-dasharray="5,2" d="M181.25,-324C181.25,-324 68.25,-324 68.25,-324 62.25,-324 56.25,-318 56.25,-312 56.25,-312 56.25,-300 56.25,-300 56.25,-294 62.25,-288 68.25,-288 68.25,-288 181.25,-288 181.25,-288 187.25,-288 193.25,-294 193.25,-300 193.25,-300 193.25,-312 193.25,-312 193.25,-318 187.25,-324 181.25,-324"/>
<text text-anchor="middle" x="124.75" y="-309" font-family="sans" font-size="10.00">extract_fastq_from_bam</text>
<text text-anchor="middle" x="124.75" y="-298" font-family="sans" font-size="10.00">type: mapped</text>
</g>
<!-- 4&#45;&gt;0 -->
<g id="edge5" class="edge">
<title>4&#45;&gt;0</title>
<path fill="none" stroke="grey" stroke-width="2" d="M95.95,-287.85C52.08,-259.42 -23.3,-200.07 7.75,-144 36.96,-91.25 66.53,-93.81 122.75,-72 209.27,-38.44 318.7,-25.83 375.19,-21.33"/>
<polygon fill="grey" stroke="grey" stroke-width="2" points="375.73,-24.8 385.44,-20.56 375.2,-17.82 375.73,-24.8"/>
</g>
<!-- 4&#45;&gt;3 -->
<g id="edge11" class="edge">
<title>4&#45;&gt;3</title>
<path fill="none" stroke="grey" stroke-width="2" d="M124.75,-287.7C124.75,-279.98 124.75,-270.71 124.75,-262.11"/>
<polygon fill="grey" stroke="grey" stroke-width="2" points="128.25,-262.1 124.75,-252.1 121.25,-262.1 128.25,-262.1"/>
</g>
<!-- 5 -->
<g id="node6" class="node">
<title>5</title>
<path fill="none" stroke="#88d856" stroke-width="2" stroke-dasharray="5,2" d="M428.25,-540C428.25,-540 373.25,-540 373.25,-540 367.25,-540 361.25,-534 361.25,-528 361.25,-528 361.25,-516 361.25,-516 361.25,-510 367.25,-504 373.25,-504 373.25,-504 428.25,-504 428.25,-504 434.25,-504 440.25,-510 440.25,-516 440.25,-516 440.25,-528 440.25,-528 440.25,-534 434.25,-540 428.25,-540"/>
<text text-anchor="middle" x="400.75" y="-519.5" font-family="sans" font-size="10.00">bowtie_build</text>
</g>
<!-- 7 -->
<g id="node8" class="node">
<title>7</title>
<path fill="none" stroke="#59d856" stroke-width="2" stroke-dasharray="5,2" d="M378.75,-468C378.75,-468 290.75,-468 290.75,-468 284.75,-468 278.75,-462 278.75,-456 278.75,-456 278.75,-444 278.75,-444 278.75,-438 284.75,-432 290.75,-432 290.75,-432 378.75,-432 378.75,-432 384.75,-432 390.75,-438 390.75,-444 390.75,-444 390.75,-456 390.75,-456 390.75,-462 384.75,-468 378.75,-468"/>
<text text-anchor="middle" x="334.75" y="-453" font-family="sans" font-size="10.00">bowtie_map_raw</text>
<text text-anchor="middle" x="334.75" y="-442" font-family="sans" font-size="10.00">dataset_id: reads_1</text>
</g>
<!-- 5&#45;&gt;7 -->
<g id="edge14" class="edge">
<title>5&#45;&gt;7</title>
<path fill="none" stroke="grey" stroke-width="2" d="M384.43,-503.7C376.44,-495.22 366.68,-484.86 357.93,-475.58"/>
<polygon fill="grey" stroke="grey" stroke-width="2" points="360.28,-472.98 350.88,-468.1 355.19,-477.78 360.28,-472.98"/>
</g>
<!-- 15 -->
<g id="node16" class="node">
<title>15</title>
<path fill="none" stroke="#59d856" stroke-width="2" stroke-dasharray="5,2" d="M548.75,-468C548.75,-468 460.75,-468 460.75,-468 454.75,-468 448.75,-462 448.75,-456 448.75,-456 448.75,-444 448.75,-444 448.75,-438 454.75,-432 460.75,-432 460.75,-432 548.75,-432 548.75,-432 554.75,-432 560.75,-438 560.75,-444 560.75,-444 560.75,-456 560.75,-456 560.75,-462 554.75,-468 548.75,-468"/>
<text text-anchor="middle" x="504.75" y="-453" font-family="sans" font-size="10.00">bowtie_map_raw</text>
<text text-anchor="middle" x="504.75" y="-442" font-family="sans" font-size="10.00">dataset_id: reads_2</text>
</g>
<!-- 5&#45;&gt;15 -->
<g id="edge22" class="edge">
<title>5&#45;&gt;15</title>
<path fill="none" stroke="grey" stroke-width="2" d="M426.19,-503.88C439.54,-494.89 456.07,-483.76 470.53,-474.03"/>
<polygon fill="grey" stroke="grey" stroke-width="2" points="472.87,-476.68 479.21,-468.19 468.96,-470.87 472.87,-476.68"/>
</g>
<!-- 6 -->
<g id="node7" class="node">
<title>6</title>
<path fill="none" stroke="#56d88a" stroke-width="2" stroke-dasharray="5,2" d="M192.25,-396C192.25,-396 109.25,-396 109.25,-396 103.25,-396 97.25,-390 97.25,-384 97.25,-384 97.25,-372 97.25,-372 97.25,-366 103.25,-360 109.25,-360 109.25,-360 192.25,-360 192.25,-360 198.25,-360 204.25,-366 204.25,-372 204.25,-372 204.25,-384 204.25,-384 204.25,-390 198.25,-396 192.25,-396"/>
<text text-anchor="middle" x="150.75" y="-375.5" font-family="sans" font-size="10.00">filer_mapped_bam</text>
</g>
<!-- 6&#45;&gt;4 -->
<g id="edge12" class="edge">
<title>6&#45;&gt;4</title>
<path fill="none" stroke="grey" stroke-width="2" d="M144.32,-359.7C141.39,-351.81 137.86,-342.3 134.61,-333.55"/>
<polygon fill="grey" stroke="grey" stroke-width="2" points="137.86,-332.26 131.1,-324.1 131.3,-334.7 137.86,-332.26"/>
</g>
<!-- 7&#45;&gt;6 -->
<g id="edge13" class="edge">
<title>7&#45;&gt;6</title>
<path fill="none" stroke="grey" stroke-width="2" d="M289.74,-431.88C264.25,-422.18 232.18,-409.98 205.27,-399.74"/>
<polygon fill="grey" stroke="grey" stroke-width="2" points="206.21,-396.35 195.61,-396.07 203.72,-402.9 206.21,-396.35"/>
</g>
<!-- 19 -->
<g id="node20" class="node">
<title>19</title>
<path fill="none" stroke="#bed856" stroke-width="2" stroke-dasharray="5,2" d="M384.25,-396C384.25,-396 285.25,-396 285.25,-396 279.25,-396 273.25,-390 273.25,-384 273.25,-384 273.25,-372 273.25,-372 273.25,-366 279.25,-360 285.25,-360 285.25,-360 384.25,-360 384.25,-360 390.25,-360 396.25,-366 396.25,-372 396.25,-372 396.25,-384 396.25,-384 396.25,-390 390.25,-396 384.25,-396"/>
<text text-anchor="middle" x="334.75" y="-375.5" font-family="sans" font-size="10.00">filter_unmapped_bam</text>
</g>
<!-- 7&#45;&gt;19 -->
<g id="edge26" class="edge">
<title>7&#45;&gt;19</title>
<path fill="none" stroke="grey" stroke-width="2" d="M334.75,-431.7C334.75,-423.98 334.75,-414.71 334.75,-406.11"/>
<polygon fill="grey" stroke="grey" stroke-width="2" points="338.25,-406.1 334.75,-396.1 331.25,-406.1 338.25,-406.1"/>
</g>
<!-- 8 -->
<g id="node9" class="node">
<title>8</title>
<path fill="none" stroke="#56c1d8" stroke-width="2" stroke-dasharray="5,2" d="M330.75,-108C330.75,-108 280.75,-108 280.75,-108 274.75,-108 268.75,-102 268.75,-96 268.75,-96 268.75,-84 268.75,-84 268.75,-78 274.75,-72 280.75,-72 280.75,-72 330.75,-72 330.75,-72 336.75,-72 342.75,-78 342.75,-84 342.75,-84 342.75,-96 342.75,-96 342.75,-102 336.75,-108 330.75,-108"/>
<text text-anchor="middle" x="305.75" y="-87.5" font-family="sans" font-size="10.00">create_logo</text>
</g>
<!-- 8&#45;&gt;0 -->
<g id="edge2" class="edge">
<title>8&#45;&gt;0</title>
<path fill="none" stroke="grey" stroke-width="2" d="M331.92,-71.88C345.78,-62.81 362.99,-51.55 377.96,-41.76"/>
<polygon fill="grey" stroke="grey" stroke-width="2" points="380.02,-44.59 386.47,-36.19 376.19,-38.74 380.02,-44.59"/>
</g>
<!-- 9&#45;&gt;8 -->
<g id="edge15" class="edge">
<title>9&#45;&gt;8</title>
<path fill="none" stroke="grey" stroke-width="2" d="M288.43,-143.7C291,-135.9 294.08,-126.51 296.93,-117.83"/>
<polygon fill="grey" stroke="grey" stroke-width="2" points="300.33,-118.7 300.13,-108.1 293.68,-116.51 300.33,-118.7"/>
</g>
<!-- 10 -->
<g id="node11" class="node">
<title>10</title>
<path fill="none" stroke="#56c1d8" stroke-width="2" stroke-dasharray="5,2" d="M544.75,-108C544.75,-108 494.75,-108 494.75,-108 488.75,-108 482.75,-102 482.75,-96 482.75,-96 482.75,-84 482.75,-84 482.75,-78 488.75,-72 494.75,-72 494.75,-72 544.75,-72 544.75,-72 550.75,-72 556.75,-78 556.75,-84 556.75,-84 556.75,-96 556.75,-96 556.75,-102 550.75,-108 544.75,-108"/>
<text text-anchor="middle" x="519.75" y="-87.5" font-family="sans" font-size="10.00">create_logo</text>
</g>
<!-- 10&#45;&gt;0 -->
<g id="edge3" class="edge">
<title>10&#45;&gt;0</title>
<path fill="none" stroke="grey" stroke-width="2" d="M493.57,-71.88C479.71,-62.81 462.51,-51.55 447.54,-41.76"/>
<polygon fill="grey" stroke="grey" stroke-width="2" points="449.31,-38.74 439.02,-36.19 445.48,-44.59 449.31,-38.74"/>
</g>
<!-- 11 -->
<g id="node12" class="node">
<title>11</title>
<path fill="none" stroke="#d8bc56" stroke-width="2" stroke-dasharray="5,2" d="M613.25,-180C613.25,-180 472.25,-180 472.25,-180 466.25,-180 460.25,-174 460.25,-168 460.25,-168 460.25,-156 460.25,-156 460.25,-150 466.25,-144 472.25,-144 472.25,-144 613.25,-144 613.25,-144 619.25,-144 625.25,-150 625.25,-156 625.25,-156 625.25,-168 625.25,-168 625.25,-174 619.25,-180 613.25,-180"/>
<text text-anchor="middle" x="542.75" y="-165" font-family="sans" font-size="10.00">split_original_reads_by_length</text>
<text text-anchor="middle" x="542.75" y="-154" font-family="sans" font-size="10.00">n: 17</text>
</g>
<!-- 11&#45;&gt;10 -->
<g id="edge17" class="edge">
<title>11&#45;&gt;10</title>
<path fill="none" stroke="grey" stroke-width="2" d="M537.06,-143.7C534.5,-135.9 531.42,-126.51 528.56,-117.83"/>
<polygon fill="grey" stroke="grey" stroke-width="2" points="531.82,-116.51 525.37,-108.1 525.17,-118.7 531.82,-116.51"/>
</g>
<!-- 12 -->
<g id="node13" class="node">
<title>12</title>
<path fill="none" stroke="#568ad8" stroke-width="2" stroke-dasharray="5,2" d="M592.25,-252C592.25,-252 493.25,-252 493.25,-252 487.25,-252 481.25,-246 481.25,-240 481.25,-240 481.25,-228 481.25,-228 481.25,-222 487.25,-216 493.25,-216 493.25,-216 592.25,-216 592.25,-216 598.25,-216 604.25,-222 604.25,-228 604.25,-228 604.25,-240 604.25,-240 604.25,-246 598.25,-252 592.25,-252"/>
<text text-anchor="middle" x="542.75" y="-231.5" font-family="sans" font-size="10.00">extract_original_fastq</text>
</g>
<!-- 12&#45;&gt;11 -->
<g id="edge18" class="edge">
<title>12&#45;&gt;11</title>
<path fill="none" stroke="grey" stroke-width="2" d="M542.75,-215.7C542.75,-207.98 542.75,-198.71 542.75,-190.11"/>
<polygon fill="grey" stroke="grey" stroke-width="2" points="546.25,-190.1 542.75,-180.1 539.25,-190.1 546.25,-190.1"/>
</g>
<!-- 17 -->
<g id="node18" class="node">
<title>17</title>
<path fill="none" stroke="#d8bc56" stroke-width="2" stroke-dasharray="5,2" d="M796.25,-180C796.25,-180 655.25,-180 655.25,-180 649.25,-180 643.25,-174 643.25,-168 643.25,-168 643.25,-156 643.25,-156 643.25,-150 649.25,-144 655.25,-144 655.25,-144 796.25,-144 796.25,-144 802.25,-144 808.25,-150 808.25,-156 808.25,-156 808.25,-168 808.25,-168 808.25,-174 802.25,-180 796.25,-180"/>
<text text-anchor="middle" x="725.75" y="-165" font-family="sans" font-size="10.00">split_original_reads_by_length</text>
<text text-anchor="middle" x="725.75" y="-154" font-family="sans" font-size="10.00">n: 18</text>
</g>
<!-- 12&#45;&gt;17 -->
<g id="edge24" class="edge">
<title>12&#45;&gt;17</title>
<path fill="none" stroke="grey" stroke-width="2" d="M587.52,-215.88C612.87,-206.18 644.76,-193.98 671.52,-183.74"/>
<polygon fill="grey" stroke="grey" stroke-width="2" points="673.04,-186.91 681.13,-180.07 670.54,-180.37 673.04,-186.91"/>
</g>
<!-- 13 -->
<g id="node14" class="node">
<title>13</title>
<path fill="none" stroke="#d85656" stroke-width="2" stroke-dasharray="5,2" d="M561.25,-324C561.25,-324 448.25,-324 448.25,-324 442.25,-324 436.25,-318 436.25,-312 436.25,-312 436.25,-300 436.25,-300 436.25,-294 442.25,-288 448.25,-288 448.25,-288 561.25,-288 561.25,-288 567.25,-288 573.25,-294 573.25,-300 573.25,-300 573.25,-312 573.25,-312 573.25,-318 567.25,-324 561.25,-324"/>
<text text-anchor="middle" x="504.75" y="-309" font-family="sans" font-size="10.00">extract_fastq_from_bam</text>
<text text-anchor="middle" x="504.75" y="-298" font-family="sans" font-size="10.00">type: mapped</text>
</g>
<!-- 13&#45;&gt;0 -->
<g id="edge7" class="edge">
<title>13&#45;&gt;0</title>
<path fill="none" stroke="grey" stroke-width="2" d="M492.5,-288C485.66,-277.92 477.41,-264.67 471.75,-252 440.13,-181.26 423.34,-90.55 416.5,-46.06"/>
<polygon fill="grey" stroke="grey" stroke-width="2" points="419.94,-45.42 415.01,-36.04 413.02,-46.45 419.94,-45.42"/>
</g>
<!-- 13&#45;&gt;12 -->
<g id="edge19" class="edge">
<title>13&#45;&gt;12</title>
<path fill="none" stroke="grey" stroke-width="2" d="M514.14,-287.7C518.51,-279.64 523.81,-269.89 528.64,-260.98"/>
<polygon fill="grey" stroke="grey" stroke-width="2" points="531.77,-262.56 533.46,-252.1 525.62,-259.22 531.77,-262.56"/>
</g>
<!-- 14 -->
<g id="node15" class="node">
<title>14</title>
<path fill="none" stroke="#56d88a" stroke-width="2" stroke-dasharray="5,2" d="M546.25,-396C546.25,-396 463.25,-396 463.25,-396 457.25,-396 451.25,-390 451.25,-384 451.25,-384 451.25,-372 451.25,-372 451.25,-366 457.25,-360 463.25,-360 463.25,-360 546.25,-360 546.25,-360 552.25,-360 558.25,-366 558.25,-372 558.25,-372 558.25,-384 558.25,-384 558.25,-390 552.25,-396 546.25,-396"/>
<text text-anchor="middle" x="504.75" y="-375.5" font-family="sans" font-size="10.00">filer_mapped_bam</text>
</g>
<!-- 14&#45;&gt;13 -->
<g id="edge20" class="edge">
<title>14&#45;&gt;13</title>
<path fill="none" stroke="grey" stroke-width="2" d="M504.75,-359.7C504.75,-351.98 504.75,-342.71 504.75,-334.11"/>
<polygon fill="grey" stroke="grey" stroke-width="2" points="508.25,-334.1 504.75,-324.1 501.25,-334.1 508.25,-334.1"/>
</g>
<!-- 15&#45;&gt;14 -->
<g id="edge21" class="edge">
<title>15&#45;&gt;14</title>
<path fill="none" stroke="grey" stroke-width="2" d="M504.75,-431.7C504.75,-423.98 504.75,-414.71 504.75,-406.11"/>
<polygon fill="grey" stroke="grey" stroke-width="2" points="508.25,-406.1 504.75,-396.1 501.25,-406.1 508.25,-406.1"/>
</g>
<!-- 21 -->
<g id="node22" class="node">
<title>21</title>
<path fill="none" stroke="#bed856" stroke-width="2" stroke-dasharray="5,2" d="M742.25,-396C742.25,-396 643.25,-396 643.25,-396 637.25,-396 631.25,-390 631.25,-384 631.25,-384 631.25,-372 631.25,-372 631.25,-366 637.25,-360 643.25,-360 643.25,-360 742.25,-360 742.25,-360 748.25,-360 754.25,-366 754.25,-372 754.25,-372 754.25,-384 754.25,-384 754.25,-390 748.25,-396 742.25,-396"/>
<text text-anchor="middle" x="692.75" y="-375.5" font-family="sans" font-size="10.00">filter_unmapped_bam</text>
</g>
<!-- 15&#45;&gt;21 -->
<g id="edge28" class="edge">
<title>15&#45;&gt;21</title>
<path fill="none" stroke="grey" stroke-width="2" d="M550.74,-431.88C576.9,-422.14 609.83,-409.87 637.4,-399.61"/>
<polygon fill="grey" stroke="grey" stroke-width="2" points="638.76,-402.84 646.91,-396.07 636.32,-396.28 638.76,-402.84"/>
</g>
<!-- 16 -->
<g id="node17" class="node">
<title>16</title>
<path fill="none" stroke="#56c1d8" stroke-width="2" stroke-dasharray="5,2" d="M693.75,-108C693.75,-108 643.75,-108 643.75,-108 637.75,-108 631.75,-102 631.75,-96 631.75,-96 631.75,-84 631.75,-84 631.75,-78 637.75,-72 643.75,-72 643.75,-72 693.75,-72 693.75,-72 699.75,-72 705.75,-78 705.75,-84 705.75,-84 705.75,-96 705.75,-96 705.75,-102 699.75,-108 693.75,-108"/>
<text text-anchor="middle" x="668.75" y="-87.5" font-family="sans" font-size="10.00">create_logo</text>
</g>
<!-- 16&#45;&gt;0 -->
<g id="edge4" class="edge">
<title>16&#45;&gt;0</title>
<path fill="none" stroke="grey" stroke-width="2" d="M631.52,-78.82C582.85,-65.51 498.08,-42.33 449.59,-29.07"/>
<polygon fill="grey" stroke="grey" stroke-width="2" points="450.39,-25.66 439.82,-26.4 448.54,-32.42 450.39,-25.66"/>
</g>
<!-- 17&#45;&gt;16 -->
<g id="edge23" class="edge">
<title>17&#45;&gt;16</title>
<path fill="none" stroke="grey" stroke-width="2" d="M711.66,-143.7C704.83,-135.3 696.49,-125.07 688.99,-115.86"/>
<polygon fill="grey" stroke="grey" stroke-width="2" points="691.7,-113.65 682.68,-108.1 686.28,-118.07 691.7,-113.65"/>
</g>
<!-- 18 -->
<g id="node19" class="node">
<title>18</title>
<path fill="none" stroke="#d85656" stroke-width="2" stroke-dasharray="5,2" d="M391.25,-252C391.25,-252 278.25,-252 278.25,-252 272.25,-252 266.25,-246 266.25,-240 266.25,-240 266.25,-228 266.25,-228 266.25,-222 272.25,-216 278.25,-216 278.25,-216 391.25,-216 391.25,-216 397.25,-216 403.25,-222 403.25,-228 403.25,-228 403.25,-240 403.25,-240 403.25,-246 397.25,-252 391.25,-252"/>
<text text-anchor="middle" x="334.75" y="-237" font-family="sans" font-size="10.00">extract_fastq_from_bam</text>
<text text-anchor="middle" x="334.75" y="-226" font-family="sans" font-size="10.00">type: unmapped</text>
</g>
<!-- 18&#45;&gt;0 -->
<g id="edge6" class="edge">
<title>18&#45;&gt;0</title>
<path fill="none" stroke="grey" stroke-width="2" d="M350,-215.97C358.13,-206.09 367.67,-193.05 373.75,-180 394.37,-135.73 404.8,-79.36 409.48,-46.41"/>
<polygon fill="grey" stroke="grey" stroke-width="2" points="412.99,-46.56 410.85,-36.19 406.05,-45.63 412.99,-46.56"/>
</g>
<!-- 19&#45;&gt;18 -->
<g id="edge25" class="edge">
<title>19&#45;&gt;18</title>
<path fill="none" stroke="grey" stroke-width="2" d="M334.75,-359.87C334.75,-335.67 334.75,-291.21 334.75,-262.39"/>
<polygon fill="grey" stroke="grey" stroke-width="2" points="338.25,-262.19 334.75,-252.19 331.25,-262.19 338.25,-262.19"/>
</g>
<!-- 20 -->
<g id="node21" class="node">
<title>20</title>
<path fill="none" stroke="#d85656" stroke-width="2" stroke-dasharray="5,2" d="M804.25,-324C804.25,-324 691.25,-324 691.25,-324 685.25,-324 679.25,-318 679.25,-312 679.25,-312 679.25,-300 679.25,-300 679.25,-294 685.25,-288 691.25,-288 691.25,-288 804.25,-288 804.25,-288 810.25,-288 816.25,-294 816.25,-300 816.25,-300 816.25,-312 816.25,-312 816.25,-318 810.25,-324 804.25,-324"/>
<text text-anchor="middle" x="747.75" y="-309" font-family="sans" font-size="10.00">extract_fastq_from_bam</text>
<text text-anchor="middle" x="747.75" y="-298" font-family="sans" font-size="10.00">type: unmapped</text>
</g>
<!-- 20&#45;&gt;0 -->
<g id="edge8" class="edge">
<title>20&#45;&gt;0</title>
<path fill="none" stroke="grey" stroke-width="2" d="M765.34,-287.7C793.51,-257.8 843.05,-194.76 816.75,-144 791.22,-94.73 765.98,-93.31 714.75,-72 624.75,-34.57 509,-23.57 450.37,-20.34"/>
<polygon fill="grey" stroke="grey" stroke-width="2" points="450.27,-16.83 440.11,-19.82 449.92,-23.82 450.27,-16.83"/>
</g>
<!-- 21&#45;&gt;20 -->
<g id="edge27" class="edge">
<title>21&#45;&gt;20</title>
<path fill="none" stroke="grey" stroke-width="2" d="M706.34,-359.7C712.87,-351.39 720.82,-341.28 728,-332.14"/>
<polygon fill="grey" stroke="grey" stroke-width="2" points="730.88,-334.13 734.31,-324.1 725.38,-329.81 730.88,-334.13"/>
</g>
</g>
</svg>
