<?xml version="1.0" encoding="UTF-8" standalone="no"?>
<!DOCTYPE svg PUBLIC "-//W3C//DTD SVG 1.1//EN"
 "http://www.w3.org/Graphics/SVG/1.1/DTD/svg11.dtd">
<!-- Generated by graphviz version 2.43.0 (0)
 -->
<!-- Title: snakemake_dag Pages: 1 -->
<svg width="835pt" height="548pt"
 viewBox="0.00 0.00 834.75 548.00" xmlns="http://www.w3.org/2000/svg" xmlns:xlink="http://www.w3.org/1999/xlink">
<g id="graph0" class="graph" transform="scale(1 1) rotate(0) translate(4 544)">
<title>snakemake_dag</title>
<polygon fill="white" stroke="transparent" points="-4,4 -4,-544 830.75,-544 830.75,4 -4,4"/>
<!-- 0 -->
<g id="node1" class="node">
<title>0</title>
<path fill="none" stroke="#bed856" stroke-width="2" stroke-dasharray="5,2" d="M427.75,-36C427.75,-36 397.75,-36 397.75,-36 391.75,-36 385.75,-30 385.75,-24 385.75,-24 385.75,-12 385.75,-12 385.75,-6 391.75,0 397.75,0 397.75,0 427.75,0 427.75,0 433.75,0 439.75,-6 439.75,-12 439.75,-12 439.75,-24 439.75,-24 439.75,-30 433.75,-36 427.75,-36"/>
<text text-anchor="middle" x="412.75" y="-15.5" font-family="sans" font-size="10.00">output</text>
</g>
<!-- 1 -->
<g id="node2" class="node">
<title>1</title>
<path fill="none" stroke="#56c1d8" stroke-width="2" stroke-dasharray="5,2" d="M193.75,-108C193.75,-108 143.75,-108 143.75,-108 137.75,-108 131.75,-102 131.75,-96 131.75,-96 131.75,-84 131.75,-84 131.75,-78 137.75,-72 143.75,-72 143.75,-72 193.75,-72 193.75,-72 199.75,-72 205.75,-78 205.75,-84 205.75,-84 205.75,-96 205.75,-96 205.75,-102 199.75,-108 193.75,-108"/>
<text text-anchor="middle" x="168.75" y="-87.5" font-family="sans" font-size="10.00">create_logo</text>
</g>
<!-- 1&#45;&gt;0 -->
<g id="edge1" class="edge">
<title>1&#45;&gt;0</title>
<path fill="none" stroke="grey" stroke-width="2" d="M205.81,-78.37C251.79,-65.18 329.74,-42.82 375.71,-29.63"/>
<polygon fill="grey" stroke="grey" stroke-width="2" points="376.92,-32.92 385.56,-26.8 374.99,-26.19 376.92,-32.92"/>
</g>
<!-- 2 -->
<g id="node3" class="node">
<title>2</title>
<path fill="none" stroke="#56d88a" stroke-width="2" stroke-dasharray="5,2" d="M170.25,-180C170.25,-180 29.25,-180 29.25,-180 23.25,-180 17.25,-174 17.25,-168 17.25,-168 17.25,-156 17.25,-156 17.25,-150 23.25,-144 29.25,-144 29.25,-144 170.25,-144 170.25,-144 176.25,-144 182.25,-150 182.25,-156 182.25,-156 182.25,-168 182.25,-168 182.25,-174 176.25,-180 170.25,-180"/>
<text text-anchor="middle" x="99.75" y="-165" font-family="sans" font-size="10.00">split_original_reads_by_length</text>
<text text-anchor="middle" x="99.75" y="-154" font-family="sans" font-size="10.00">n: 17</text>
</g>
<!-- 2&#45;&gt;1 -->
<g id="edge9" class="edge">
<title>2&#45;&gt;1</title>
<path fill="none" stroke="grey" stroke-width="2" d="M116.81,-143.7C125.25,-135.14 135.58,-124.66 144.79,-115.3"/>
<polygon fill="grey" stroke="grey" stroke-width="2" points="147.36,-117.68 151.89,-108.1 142.38,-112.77 147.36,-117.68"/>
</g>
<!-- 3 -->
<g id="node4" class="node">
<title>3</title>
<path fill="none" stroke="#d8bc56" stroke-width="2" stroke-dasharray="5,2" d="M173.25,-252C173.25,-252 74.25,-252 74.25,-252 68.25,-252 62.25,-246 62.25,-240 62.25,-240 62.25,-228 62.25,-228 62.25,-222 68.25,-216 74.25,-216 74.25,-216 173.25,-216 173.25,-216 179.25,-216 185.25,-222 185.25,-228 185.25,-228 185.25,-240 185.25,-240 185.25,-246 179.25,-252 173.25,-252"/>
<text text-anchor="middle" x="123.75" y="-231.5" font-family="sans" font-size="10.00">extract_original_fastq</text>
</g>
<!-- 3&#45;&gt;2 -->
<g id="edge10" class="edge">
<title>3&#45;&gt;2</title>
<path fill="none" stroke="grey" stroke-width="2" d="M117.82,-215.7C115.14,-207.9 111.93,-198.51 108.95,-189.83"/>
<polygon fill="grey" stroke="grey" stroke-width="2" points="112.17,-188.43 105.62,-180.1 105.55,-190.7 112.17,-188.43"/>
</g>
<!-- 9 -->
<g id="node10" class="node">
<title>9</title>
<path fill="none" stroke="#56d88a" stroke-width="2" stroke-dasharray="5,2" d="M353.25,-180C353.25,-180 212.25,-180 212.25,-180 206.25,-180 200.25,-174 200.25,-168 200.25,-168 200.25,-156 200.25,-156 200.25,-150 206.25,-144 212.25,-144 212.25,-144 353.25,-144 353.25,-144 359.25,-144 365.25,-150 365.25,-156 365.25,-156 365.25,-168 365.25,-168 365.25,-174 359.25,-180 353.25,-180"/>
<text text-anchor="middle" x="282.75" y="-165" font-family="sans" font-size="10.00">split_original_reads_by_length</text>
<text text-anchor="middle" x="282.75" y="-154" font-family="sans" font-size="10.00">n: 18</text>
</g>
<!-- 3&#45;&gt;9 -->
<g id="edge16" class="edge">
<title>3&#45;&gt;9</title>
<path fill="none" stroke="grey" stroke-width="2" d="M162.65,-215.88C184.38,-206.31 211.65,-194.3 234.72,-184.15"/>
<polygon fill="grey" stroke="grey" stroke-width="2" points="236.24,-187.3 243.98,-180.07 233.42,-180.89 236.24,-187.3"/>
</g>
<!-- 4 -->
<g id="node5" class="node">
<title>4</title>
<path fill="none" stroke="#d88d56" stroke-width="2" stroke-dasharray="5,2" d="M181.75,-324C181.75,-324 65.75,-324 65.75,-324 59.75,-324 53.75,-318 53.75,-312 53.75,-312 53.75,-300 53.75,-300 53.75,-294 59.75,-288 65.75,-288 65.75,-288 181.75,-288 181.75,-288 187.75,-288 193.75,-294 193.75,-300 193.75,-300 193.75,-312 193.75,-312 193.75,-318 187.75,-324 181.75,-324"/>
<text text-anchor="middle" x="123.75" y="-309" font-family="sans" font-size="10.00">extract_fastq_from_bam</text>
<text text-anchor="middle" x="123.75" y="-298" font-family="sans" font-size="10.00">mapping_status: mapped</text>
</g>
<!-- 4&#45;&gt;0 -->
<g id="edge5" class="edge">
<title>4&#45;&gt;0</title>
<path fill="none" stroke="grey" stroke-width="2" d="M95.16,-287.81C51.61,-259.33 -23.21,-199.91 7.75,-144 36.96,-91.25 66.53,-93.81 122.75,-72 209.27,-38.44 318.7,-25.83 375.2,-21.33"/>
<polygon fill="grey" stroke="grey" stroke-width="2" points="375.73,-24.8 385.44,-20.56 375.2,-17.82 375.73,-24.8"/>
</g>
<!-- 4&#45;&gt;3 -->
<g id="edge11" class="edge">
<title>4&#45;&gt;3</title>
<path fill="none" stroke="grey" stroke-width="2" d="M123.75,-287.7C123.75,-279.98 123.75,-270.71 123.75,-262.11"/>
<polygon fill="grey" stroke="grey" stroke-width="2" points="127.25,-262.1 123.75,-252.1 120.25,-262.1 127.25,-262.1"/>
</g>
<!-- 5 -->
<g id="node6" class="node">
<title>5</title>
<path fill="none" stroke="#59d856" stroke-width="2" stroke-dasharray="5,2" d="M421.25,-540C421.25,-540 366.25,-540 366.25,-540 360.25,-540 354.25,-534 354.25,-528 354.25,-528 354.25,-516 354.25,-516 354.25,-510 360.25,-504 366.25,-504 366.25,-504 421.25,-504 421.25,-504 427.25,-504 433.25,-510 433.25,-516 433.25,-516 433.25,-528 433.25,-528 433.25,-534 427.25,-540 421.25,-540"/>
<text text-anchor="middle" x="393.75" y="-519.5" font-family="sans" font-size="10.00">bowtie_build</text>
</g>
<!-- 7 -->
<g id="node8" class="node">
<title>7</title>
<path fill="none" stroke="#d85656" stroke-width="2" stroke-dasharray="5,2" d="M371.75,-468C371.75,-468 283.75,-468 283.75,-468 277.75,-468 271.75,-462 271.75,-456 271.75,-456 271.75,-444 271.75,-444 271.75,-438 277.75,-432 283.75,-432 283.75,-432 371.75,-432 371.75,-432 377.75,-432 383.75,-438 383.75,-444 383.75,-444 383.75,-456 383.75,-456 383.75,-462 377.75,-468 371.75,-468"/>
<text text-anchor="middle" x="327.75" y="-453" font-family="sans" font-size="10.00">bowtie_map_raw</text>
<text text-anchor="middle" x="327.75" y="-442" font-family="sans" font-size="10.00">dataset_id: reads_1</text>
</g>
<!-- 5&#45;&gt;7 -->
<g id="edge14" class="edge">
<title>5&#45;&gt;7</title>
<path fill="none" stroke="grey" stroke-width="2" d="M377.44,-503.7C369.44,-495.22 359.68,-484.86 350.93,-475.58"/>
<polygon fill="grey" stroke="grey" stroke-width="2" points="353.28,-472.98 343.88,-468.1 348.19,-477.78 353.28,-472.98"/>
</g>
<!-- 15 -->
<g id="node16" class="node">
<title>15</title>
<path fill="none" stroke="#d85656" stroke-width="2" stroke-dasharray="5,2" d="M545.75,-468C545.75,-468 457.75,-468 457.75,-468 451.75,-468 445.75,-462 445.75,-456 445.75,-456 445.75,-444 445.75,-444 445.75,-438 451.75,-432 457.75,-432 457.75,-432 545.75,-432 545.75,-432 551.75,-432 557.75,-438 557.75,-444 557.75,-444 557.75,-456 557.75,-456 557.75,-462 551.75,-468 545.75,-468"/>
<text text-anchor="middle" x="501.75" y="-453" font-family="sans" font-size="10.00">bowtie_map_raw</text>
<text text-anchor="middle" x="501.75" y="-442" font-family="sans" font-size="10.00">dataset_id: reads_2</text>
</g>
<!-- 5&#45;&gt;15 -->
<g id="edge22" class="edge">
<title>5&#45;&gt;15</title>
<path fill="none" stroke="grey" stroke-width="2" d="M420.17,-503.88C434.16,-494.81 451.53,-483.55 466.64,-473.76"/>
<polygon fill="grey" stroke="grey" stroke-width="2" points="468.74,-476.57 475.23,-468.19 464.93,-470.69 468.74,-476.57"/>
</g>
<!-- 6 -->
<g id="node7" class="node">
<title>6</title>
<path fill="none" stroke="#56d8c1" stroke-width="2" stroke-dasharray="5,2" d="M189.25,-396C189.25,-396 106.25,-396 106.25,-396 100.25,-396 94.25,-390 94.25,-384 94.25,-384 94.25,-372 94.25,-372 94.25,-366 100.25,-360 106.25,-360 106.25,-360 189.25,-360 189.25,-360 195.25,-360 201.25,-366 201.25,-372 201.25,-372 201.25,-384 201.25,-384 201.25,-390 195.25,-396 189.25,-396"/>
<text text-anchor="middle" x="147.75" y="-375.5" font-family="sans" font-size="10.00">filer_mapped_bam</text>
</g>
<!-- 6&#45;&gt;4 -->
<g id="edge12" class="edge">
<title>6&#45;&gt;4</title>
<path fill="none" stroke="grey" stroke-width="2" d="M141.82,-359.7C139.14,-351.9 135.93,-342.51 132.95,-333.83"/>
<polygon fill="grey" stroke="grey" stroke-width="2" points="136.17,-332.43 129.62,-324.1 129.55,-334.7 136.17,-332.43"/>
</g>
<!-- 7&#45;&gt;6 -->
<g id="edge13" class="edge">
<title>7&#45;&gt;6</title>
<path fill="none" stroke="grey" stroke-width="2" d="M283.72,-431.88C258.78,-422.18 227.41,-409.98 201.09,-399.74"/>
<polygon fill="grey" stroke="grey" stroke-width="2" points="202.23,-396.43 191.64,-396.07 199.69,-402.95 202.23,-396.43"/>
</g>
<!-- 19 -->
<g id="node20" class="node">
<title>19</title>
<path fill="none" stroke="#568ad8" stroke-width="2" stroke-dasharray="5,2" d="M377.25,-396C377.25,-396 278.25,-396 278.25,-396 272.25,-396 266.25,-390 266.25,-384 266.25,-384 266.25,-372 266.25,-372 266.25,-366 272.25,-360 278.25,-360 278.25,-360 377.25,-360 377.25,-360 383.25,-360 389.25,-366 389.25,-372 389.25,-372 389.25,-384 389.25,-384 389.25,-390 383.25,-396 377.25,-396"/>
<text text-anchor="middle" x="327.75" y="-375.5" font-family="sans" font-size="10.00">filter_unmapped_bam</text>
</g>
<!-- 7&#45;&gt;19 -->
<g id="edge26" class="edge">
<title>7&#45;&gt;19</title>
<path fill="none" stroke="grey" stroke-width="2" d="M327.75,-431.7C327.75,-423.98 327.75,-414.71 327.75,-406.11"/>
<polygon fill="grey" stroke="grey" stroke-width="2" points="331.25,-406.1 327.75,-396.1 324.25,-406.1 331.25,-406.1"/>
</g>
<!-- 8 -->
<g id="node9" class="node">
<title>8</title>
<path fill="none" stroke="#56c1d8" stroke-width="2" stroke-dasharray="5,2" d="M330.75,-108C330.75,-108 280.75,-108 280.75,-108 274.75,-108 268.75,-102 268.75,-96 268.75,-96 268.75,-84 268.75,-84 268.75,-78 274.75,-72 280.75,-72 280.75,-72 330.75,-72 330.75,-72 336.75,-72 342.75,-78 342.75,-84 342.75,-84 342.75,-96 342.75,-96 342.75,-102 336.75,-108 330.75,-108"/>
<text text-anchor="middle" x="305.75" y="-87.5" font-family="sans" font-size="10.00">create_logo</text>
</g>
<!-- 8&#45;&gt;0 -->
<g id="edge2" class="edge">
<title>8&#45;&gt;0</title>
<path fill="none" stroke="grey" stroke-width="2" d="M331.93,-71.88C345.79,-62.81 362.99,-51.55 377.96,-41.76"/>
<polygon fill="grey" stroke="grey" stroke-width="2" points="380.02,-44.59 386.48,-36.19 376.19,-38.74 380.02,-44.59"/>
</g>
<!-- 9&#45;&gt;8 -->
<g id="edge15" class="edge">
<title>9&#45;&gt;8</title>
<path fill="none" stroke="grey" stroke-width="2" d="M288.44,-143.7C291,-135.9 294.08,-126.51 296.94,-117.83"/>
<polygon fill="grey" stroke="grey" stroke-width="2" points="300.33,-118.7 300.13,-108.1 293.68,-116.51 300.33,-118.7"/>
</g>
<!-- 10 -->
<g id="node11" class="node">
<title>10</title>
<path fill="none" stroke="#56c1d8" stroke-width="2" stroke-dasharray="5,2" d="M544.75,-108C544.75,-108 494.75,-108 494.75,-108 488.75,-108 482.75,-102 482.75,-96 482.75,-96 482.75,-84 482.75,-84 482.75,-78 488.75,-72 494.75,-72 494.75,-72 544.75,-72 544.75,-72 550.75,-72 556.75,-78 556.75,-84 556.75,-84 556.75,-96 556.75,-96 556.75,-102 550.75,-108 544.75,-108"/>
<text text-anchor="middle" x="519.75" y="-87.5" font-family="sans" font-size="10.00">create_logo</text>
</g>
<!-- 10&#45;&gt;0 -->
<g id="edge3" class="edge">
<title>10&#45;&gt;0</title>
<path fill="none" stroke="grey" stroke-width="2" d="M493.58,-71.88C479.71,-62.81 462.51,-51.55 447.54,-41.76"/>
<polygon fill="grey" stroke="grey" stroke-width="2" points="449.31,-38.74 439.03,-36.19 445.48,-44.59 449.31,-38.74"/>
</g>
<!-- 11 -->
<g id="node12" class="node">
<title>11</title>
<path fill="none" stroke="#56d88a" stroke-width="2" stroke-dasharray="5,2" d="M613.25,-180C613.25,-180 472.25,-180 472.25,-180 466.25,-180 460.25,-174 460.25,-168 460.25,-168 460.25,-156 460.25,-156 460.25,-150 466.25,-144 472.25,-144 472.25,-144 613.25,-144 613.25,-144 619.25,-144 625.25,-150 625.25,-156 625.25,-156 625.25,-168 625.25,-168 625.25,-174 619.25,-180 613.25,-180"/>
<text text-anchor="middle" x="542.75" y="-165" font-family="sans" font-size="10.00">split_original_reads_by_length</text>
<text text-anchor="middle" x="542.75" y="-154" font-family="sans" font-size="10.00">n: 17</text>
</g>
<!-- 11&#45;&gt;10 -->
<g id="edge17" class="edge">
<title>11&#45;&gt;10</title>
<path fill="none" stroke="grey" stroke-width="2" d="M537.07,-143.7C534.5,-135.9 531.42,-126.51 528.57,-117.83"/>
<polygon fill="grey" stroke="grey" stroke-width="2" points="531.82,-116.51 525.37,-108.1 525.17,-118.7 531.82,-116.51"/>
</g>
<!-- 12 -->
<g id="node13" class="node">
<title>12</title>
<path fill="none" stroke="#d8bc56" stroke-width="2" stroke-dasharray="5,2" d="M592.25,-252C592.25,-252 493.25,-252 493.25,-252 487.25,-252 481.25,-246 481.25,-240 481.25,-240 481.25,-228 481.25,-228 481.25,-222 487.25,-216 493.25,-216 493.25,-216 592.25,-216 592.25,-216 598.25,-216 604.25,-222 604.25,-228 604.25,-228 604.25,-240 604.25,-240 604.25,-246 598.25,-252 592.25,-252"/>
<text text-anchor="middle" x="542.75" y="-231.5" font-family="sans" font-size="10.00">extract_original_fastq</text>
</g>
<!-- 12&#45;&gt;11 -->
<g id="edge18" class="edge">
<title>12&#45;&gt;11</title>
<path fill="none" stroke="grey" stroke-width="2" d="M542.75,-215.7C542.75,-207.98 542.75,-198.71 542.75,-190.11"/>
<polygon fill="grey" stroke="grey" stroke-width="2" points="546.25,-190.1 542.75,-180.1 539.25,-190.1 546.25,-190.1"/>
</g>
<!-- 17 -->
<g id="node18" class="node">
<title>17</title>
<path fill="none" stroke="#56d88a" stroke-width="2" stroke-dasharray="5,2" d="M796.25,-180C796.25,-180 655.25,-180 655.25,-180 649.25,-180 643.25,-174 643.25,-168 643.25,-168 643.25,-156 643.25,-156 643.25,-150 649.25,-144 655.25,-144 655.25,-144 796.25,-144 796.25,-144 802.25,-144 808.25,-150 808.25,-156 808.25,-156 808.25,-168 808.25,-168 808.25,-174 802.25,-180 796.25,-180"/>
<text text-anchor="middle" x="725.75" y="-165" font-family="sans" font-size="10.00">split_original_reads_by_length</text>
<text text-anchor="middle" x="725.75" y="-154" font-family="sans" font-size="10.00">n: 18</text>
</g>
<!-- 12&#45;&gt;17 -->
<g id="edge24" class="edge">
<title>12&#45;&gt;17</title>
<path fill="none" stroke="grey" stroke-width="2" d="M587.52,-215.88C612.87,-206.18 644.76,-193.98 671.52,-183.74"/>
<polygon fill="grey" stroke="grey" stroke-width="2" points="673.04,-186.91 681.13,-180.07 670.54,-180.37 673.04,-186.91"/>
</g>
<!-- 13 -->
<g id="node14" class="node">
<title>13</title>
<path fill="none" stroke="#d88d56" stroke-width="2" stroke-dasharray="5,2" d="M559.75,-324C559.75,-324 443.75,-324 443.75,-324 437.75,-324 431.75,-318 431.75,-312 431.75,-312 431.75,-300 431.75,-300 431.75,-294 437.75,-288 443.75,-288 443.75,-288 559.75,-288 559.75,-288 565.75,-288 571.75,-294 571.75,-300 571.75,-300 571.75,-312 571.75,-312 571.75,-318 565.75,-324 559.75,-324"/>
<text text-anchor="middle" x="501.75" y="-309" font-family="sans" font-size="10.00">extract_fastq_from_bam</text>
<text text-anchor="middle" x="501.75" y="-298" font-family="sans" font-size="10.00">mapping_status: mapped</text>
</g>
<!-- 13&#45;&gt;0 -->
<g id="edge7" class="edge">
<title>13&#45;&gt;0</title>
<path fill="none" stroke="grey" stroke-width="2" d="M490.7,-287.85C484.51,-277.72 477.01,-264.47 471.75,-252 441.69,-180.79 424.24,-90.65 416.89,-46.25"/>
<polygon fill="grey" stroke="grey" stroke-width="2" points="420.33,-45.55 415.28,-36.24 413.42,-46.67 420.33,-45.55"/>
</g>
<!-- 13&#45;&gt;12 -->
<g id="edge19" class="edge">
<title>13&#45;&gt;12</title>
<path fill="none" stroke="grey" stroke-width="2" d="M511.89,-287.7C516.6,-279.64 522.31,-269.89 527.53,-260.98"/>
<polygon fill="grey" stroke="grey" stroke-width="2" points="530.7,-262.5 532.73,-252.1 524.66,-258.96 530.7,-262.5"/>
</g>
<!-- 14 -->
<g id="node15" class="node">
<title>14</title>
<path fill="none" stroke="#56d8c1" stroke-width="2" stroke-dasharray="5,2" d="M543.25,-396C543.25,-396 460.25,-396 460.25,-396 454.25,-396 448.25,-390 448.25,-384 448.25,-384 448.25,-372 448.25,-372 448.25,-366 454.25,-360 460.25,-360 460.25,-360 543.25,-360 543.25,-360 549.25,-360 555.25,-366 555.25,-372 555.25,-372 555.25,-384 555.25,-384 555.25,-390 549.25,-396 543.25,-396"/>
<text text-anchor="middle" x="501.75" y="-375.5" font-family="sans" font-size="10.00">filer_mapped_bam</text>
</g>
<!-- 14&#45;&gt;13 -->
<g id="edge20" class="edge">
<title>14&#45;&gt;13</title>
<path fill="none" stroke="grey" stroke-width="2" d="M501.75,-359.7C501.75,-351.98 501.75,-342.71 501.75,-334.11"/>
<polygon fill="grey" stroke="grey" stroke-width="2" points="505.25,-334.1 501.75,-324.1 498.25,-334.1 505.25,-334.1"/>
</g>
<!-- 15&#45;&gt;14 -->
<g id="edge21" class="edge">
<title>15&#45;&gt;14</title>
<path fill="none" stroke="grey" stroke-width="2" d="M501.75,-431.7C501.75,-423.98 501.75,-414.71 501.75,-406.11"/>
<polygon fill="grey" stroke="grey" stroke-width="2" points="505.25,-406.1 501.75,-396.1 498.25,-406.1 505.25,-406.1"/>
</g>
<!-- 21 -->
<g id="node22" class="node">
<title>21</title>
<path fill="none" stroke="#568ad8" stroke-width="2" stroke-dasharray="5,2" d="M742.25,-396C742.25,-396 643.25,-396 643.25,-396 637.25,-396 631.25,-390 631.25,-384 631.25,-384 631.25,-372 631.25,-372 631.25,-366 637.25,-360 643.25,-360 643.25,-360 742.25,-360 742.25,-360 748.25,-360 754.25,-366 754.25,-372 754.25,-372 754.25,-384 754.25,-384 754.25,-390 748.25,-396 742.25,-396"/>
<text text-anchor="middle" x="692.75" y="-375.5" font-family="sans" font-size="10.00">filter_unmapped_bam</text>
</g>
<!-- 15&#45;&gt;21 -->
<g id="edge28" class="edge">
<title>15&#45;&gt;21</title>
<path fill="none" stroke="grey" stroke-width="2" d="M548.47,-431.88C575.05,-422.14 608.51,-409.87 636.52,-399.61"/>
<polygon fill="grey" stroke="grey" stroke-width="2" points="637.99,-402.8 646.18,-396.07 635.58,-396.22 637.99,-402.8"/>
</g>
<!-- 16 -->
<g id="node17" class="node">
<title>16</title>
<path fill="none" stroke="#56c1d8" stroke-width="2" stroke-dasharray="5,2" d="M693.75,-108C693.75,-108 643.75,-108 643.75,-108 637.75,-108 631.75,-102 631.75,-96 631.75,-96 631.75,-84 631.75,-84 631.75,-78 637.75,-72 643.75,-72 643.75,-72 693.75,-72 693.75,-72 699.75,-72 705.75,-78 705.75,-84 705.75,-84 705.75,-96 705.75,-96 705.75,-102 699.75,-108 693.75,-108"/>
<text text-anchor="middle" x="668.75" y="-87.5" font-family="sans" font-size="10.00">create_logo</text>
</g>
<!-- 16&#45;&gt;0 -->
<g id="edge4" class="edge">
<title>16&#45;&gt;0</title>
<path fill="none" stroke="grey" stroke-width="2" d="M631.53,-78.82C582.85,-65.51 498.08,-42.33 449.59,-29.07"/>
<polygon fill="grey" stroke="grey" stroke-width="2" points="450.39,-25.66 439.82,-26.4 448.54,-32.42 450.39,-25.66"/>
</g>
<!-- 17&#45;&gt;16 -->
<g id="edge23" class="edge">
<title>17&#45;&gt;16</title>
<path fill="none" stroke="grey" stroke-width="2" d="M711.66,-143.7C704.83,-135.3 696.49,-125.07 689,-115.86"/>
<polygon fill="grey" stroke="grey" stroke-width="2" points="691.71,-113.65 682.68,-108.1 686.28,-118.07 691.71,-113.65"/>
</g>
<!-- 18 -->
<g id="node19" class="node">
<title>18</title>
<path fill="none" stroke="#d88d56" stroke-width="2" stroke-dasharray="5,2" d="M391.75,-252C391.75,-252 263.75,-252 263.75,-252 257.75,-252 251.75,-246 251.75,-240 251.75,-240 251.75,-228 251.75,-228 251.75,-222 257.75,-216 263.75,-216 263.75,-216 391.75,-216 391.75,-216 397.75,-216 403.75,-222 403.75,-228 403.75,-228 403.75,-240 403.75,-240 403.75,-246 397.75,-252 391.75,-252"/>
<text text-anchor="middle" x="327.75" y="-237" font-family="sans" font-size="10.00">extract_fastq_from_bam</text>
<text text-anchor="middle" x="327.75" y="-226" font-family="sans" font-size="10.00">mapping_status: unmapped</text>
</g>
<!-- 18&#45;&gt;0 -->
<g id="edge6" class="edge">
<title>18&#45;&gt;0</title>
<path fill="none" stroke="grey" stroke-width="2" d="M346.3,-215.97C355.82,-206.28 366.82,-193.43 373.75,-180 396.14,-136.6 405.99,-79.94 410.08,-46.7"/>
<polygon fill="grey" stroke="grey" stroke-width="2" points="413.6,-46.72 411.26,-36.38 406.64,-45.92 413.6,-46.72"/>
</g>
<!-- 19&#45;&gt;18 -->
<g id="edge25" class="edge">
<title>19&#45;&gt;18</title>
<path fill="none" stroke="grey" stroke-width="2" d="M327.75,-359.87C327.75,-335.67 327.75,-291.21 327.75,-262.39"/>
<polygon fill="grey" stroke="grey" stroke-width="2" points="331.25,-262.19 327.75,-252.19 324.25,-262.19 331.25,-262.19"/>
</g>
<!-- 20 -->
<g id="node21" class="node">
<title>20</title>
<path fill="none" stroke="#d88d56" stroke-width="2" stroke-dasharray="5,2" d="M814.75,-324C814.75,-324 686.75,-324 686.75,-324 680.75,-324 674.75,-318 674.75,-312 674.75,-312 674.75,-300 674.75,-300 674.75,-294 680.75,-288 686.75,-288 686.75,-288 814.75,-288 814.75,-288 820.75,-288 826.75,-294 826.75,-300 826.75,-300 826.75,-312 826.75,-312 826.75,-318 820.75,-324 814.75,-324"/>
<text text-anchor="middle" x="750.75" y="-309" font-family="sans" font-size="10.00">extract_fastq_from_bam</text>
<text text-anchor="middle" x="750.75" y="-298" font-family="sans" font-size="10.00">mapping_status: unmapped</text>
</g>
<!-- 20&#45;&gt;0 -->
<g id="edge8" class="edge">
<title>20&#45;&gt;0</title>
<path fill="none" stroke="grey" stroke-width="2" d="M767.78,-287.63C795.04,-257.62 842.88,-194.43 816.75,-144 791.22,-94.73 765.98,-93.31 714.75,-72 624.76,-34.57 509,-23.57 450.38,-20.34"/>
<polygon fill="grey" stroke="grey" stroke-width="2" points="450.28,-16.83 440.11,-19.82 449.92,-23.82 450.28,-16.83"/>
</g>
<!-- 21&#45;&gt;20 -->
<g id="edge27" class="edge">
<title>21&#45;&gt;20</title>
<path fill="none" stroke="grey" stroke-width="2" d="M707.09,-359.7C714.04,-351.3 722.52,-341.07 730.15,-331.86"/>
<polygon fill="grey" stroke="grey" stroke-width="2" points="732.89,-334.04 736.58,-324.1 727.5,-329.57 732.89,-334.04"/>
</g>
</g>
</svg>
