<?xml version="1.0" encoding="UTF-8" standalone="no"?>
<!DOCTYPE svg PUBLIC "-//W3C//DTD SVG 1.1//EN"
 "http://www.w3.org/Graphics/SVG/1.1/DTD/svg11.dtd">
<!-- Generated by graphviz version 2.43.0 (0)
 -->
<!-- Title: snakemake_dag Pages: 1 -->
<svg width="276pt" height="548pt"
 viewBox="0.00 0.00 276.00 548.00" xmlns="http://www.w3.org/2000/svg" xmlns:xlink="http://www.w3.org/1999/xlink">
<g id="graph0" class="graph" transform="scale(1 1) rotate(0) translate(4 544)">
<title>snakemake_dag</title>
<polygon fill="white" stroke="transparent" points="-4,4 -4,-544 272,-544 272,4 -4,4"/>
<!-- 0 -->
<g id="node1" class="node">
<title>0</title>
<path fill="none" stroke="#70d856" stroke-width="2" d="M121.5,-36C121.5,-36 91.5,-36 91.5,-36 85.5,-36 79.5,-30 79.5,-24 79.5,-24 79.5,-12 79.5,-12 79.5,-6 85.5,0 91.5,0 91.5,0 121.5,0 121.5,0 127.5,0 133.5,-6 133.5,-12 133.5,-12 133.5,-24 133.5,-24 133.5,-30 127.5,-36 121.5,-36"/>
<text text-anchor="middle" x="106.5" y="-15.5" font-family="sans" font-size="10.00">output</text>
</g>
<!-- 1 -->
<g id="node2" class="node">
<title>1</title>
<path fill="none" stroke="#5692d8" stroke-width="2" d="M187.5,-108C187.5,-108 137.5,-108 137.5,-108 131.5,-108 125.5,-102 125.5,-96 125.5,-96 125.5,-84 125.5,-84 125.5,-78 131.5,-72 137.5,-72 137.5,-72 187.5,-72 187.5,-72 193.5,-72 199.5,-78 199.5,-84 199.5,-84 199.5,-96 199.5,-96 199.5,-102 193.5,-108 187.5,-108"/>
<text text-anchor="middle" x="162.5" y="-87.5" font-family="sans" font-size="10.00">create_logo</text>
</g>
<!-- 1&#45;&gt;0 -->
<g id="edge2" class="edge">
<title>1&#45;&gt;0</title>
<path fill="none" stroke="grey" stroke-width="2" d="M148.66,-71.7C142.01,-63.39 133.92,-53.28 126.61,-44.14"/>
<polygon fill="grey" stroke="grey" stroke-width="2" points="129.16,-41.73 120.18,-36.1 123.7,-46.1 129.16,-41.73"/>
</g>
<!-- 2 -->
<g id="node3" class="node">
<title>2</title>
<path fill="none" stroke="#56d873" stroke-width="2" d="M256,-180C256,-180 115,-180 115,-180 109,-180 103,-174 103,-168 103,-168 103,-156 103,-156 103,-150 109,-144 115,-144 115,-144 256,-144 256,-144 262,-144 268,-150 268,-156 268,-156 268,-168 268,-168 268,-174 262,-180 256,-180"/>
<text text-anchor="middle" x="185.5" y="-159.5" font-family="sans" font-size="10.00">split_original_reads_by_length</text>
</g>
<!-- 2&#45;&gt;1 -->
<g id="edge3" class="edge">
<title>2&#45;&gt;1</title>
<path fill="none" stroke="grey" stroke-width="2" d="M179.81,-143.7C177.25,-135.9 174.17,-126.51 171.32,-117.83"/>
<polygon fill="grey" stroke="grey" stroke-width="2" points="174.57,-116.51 168.12,-108.1 167.92,-118.7 174.57,-116.51"/>
</g>
<!-- 3 -->
<g id="node4" class="node">
<title>3</title>
<path fill="none" stroke="#afd856" stroke-width="2" d="M224,-252C224,-252 125,-252 125,-252 119,-252 113,-246 113,-240 113,-240 113,-228 113,-228 113,-222 119,-216 125,-216 125,-216 224,-216 224,-216 230,-216 236,-222 236,-228 236,-228 236,-240 236,-240 236,-246 230,-252 224,-252"/>
<text text-anchor="middle" x="174.5" y="-231.5" font-family="sans" font-size="10.00">extract_original_fastq</text>
</g>
<!-- 3&#45;&gt;2 -->
<g id="edge4" class="edge">
<title>3&#45;&gt;2</title>
<path fill="none" stroke="grey" stroke-width="2" d="M177.22,-215.7C178.43,-207.98 179.89,-198.71 181.24,-190.11"/>
<polygon fill="grey" stroke="grey" stroke-width="2" points="184.72,-190.53 182.81,-180.1 177.8,-189.44 184.72,-190.53"/>
</g>
<!-- 4 -->
<g id="node5" class="node">
<title>4</title>
<path fill="none" stroke="#d85656" stroke-width="2" d="M176,-324C176,-324 63,-324 63,-324 57,-324 51,-318 51,-312 51,-312 51,-300 51,-300 51,-294 57,-288 63,-288 63,-288 176,-288 176,-288 182,-288 188,-294 188,-300 188,-300 188,-312 188,-312 188,-318 182,-324 176,-324"/>
<text text-anchor="middle" x="119.5" y="-303.5" font-family="sans" font-size="10.00">extract_fastq_from_bam</text>
</g>
<!-- 4&#45;&gt;0 -->
<g id="edge1" class="edge">
<title>4&#45;&gt;0</title>
<path fill="none" stroke="grey" stroke-width="2" d="M113.63,-287.99C110.26,-277.68 106.17,-264.21 103.5,-252 96.59,-220.44 95.73,-212.23 93.5,-180 90.25,-133 96.87,-78.35 101.8,-46.33"/>
<polygon fill="grey" stroke="grey" stroke-width="2" points="105.26,-46.81 103.39,-36.38 98.35,-45.7 105.26,-46.81"/>
</g>
<!-- 4&#45;&gt;3 -->
<g id="edge5" class="edge">
<title>4&#45;&gt;3</title>
<path fill="none" stroke="grey" stroke-width="2" d="M133.1,-287.7C139.62,-279.39 147.57,-269.28 154.75,-260.14"/>
<polygon fill="grey" stroke="grey" stroke-width="2" points="157.63,-262.13 161.06,-252.1 152.13,-257.81 157.63,-262.13"/>
</g>
<!-- 5 -->
<g id="node6" class="node">
<title>5</title>
<path fill="none" stroke="#d88d56" stroke-width="2" d="M147,-540C147,-540 92,-540 92,-540 86,-540 80,-534 80,-528 80,-528 80,-516 80,-516 80,-510 86,-504 92,-504 92,-504 147,-504 147,-504 153,-504 159,-510 159,-516 159,-516 159,-528 159,-528 159,-534 153,-540 147,-540"/>
<text text-anchor="middle" x="119.5" y="-519.5" font-family="sans" font-size="10.00">bowtie_build</text>
</g>
<!-- 7 -->
<g id="node8" class="node">
<title>7</title>
<path fill="none" stroke="#56d8a9" stroke-width="2" d="M157.5,-468C157.5,-468 81.5,-468 81.5,-468 75.5,-468 69.5,-462 69.5,-456 69.5,-456 69.5,-444 69.5,-444 69.5,-438 75.5,-432 81.5,-432 81.5,-432 157.5,-432 157.5,-432 163.5,-432 169.5,-438 169.5,-444 169.5,-444 169.5,-456 169.5,-456 169.5,-462 163.5,-468 157.5,-468"/>
<text text-anchor="middle" x="119.5" y="-447.5" font-family="sans" font-size="10.00">bowtie_map_raw</text>
</g>
<!-- 5&#45;&gt;7 -->
<g id="edge9" class="edge">
<title>5&#45;&gt;7</title>
<path fill="none" stroke="grey" stroke-width="2" d="M119.5,-503.7C119.5,-495.98 119.5,-486.71 119.5,-478.11"/>
<polygon fill="grey" stroke="grey" stroke-width="2" points="123,-478.1 119.5,-468.1 116,-478.1 123,-478.1"/>
</g>
<!-- 6 -->
<g id="node7" class="node">
<title>6</title>
<path fill="none" stroke="#56c9d8" stroke-width="2" d="M95,-396C95,-396 12,-396 12,-396 6,-396 0,-390 0,-384 0,-384 0,-372 0,-372 0,-366 6,-360 12,-360 12,-360 95,-360 95,-360 101,-360 107,-366 107,-372 107,-372 107,-384 107,-384 107,-390 101,-396 95,-396"/>
<text text-anchor="middle" x="53.5" y="-375.5" font-family="sans" font-size="10.00">filer_mapped_bam</text>
</g>
<!-- 6&#45;&gt;4 -->
<g id="edge6" class="edge">
<title>6&#45;&gt;4</title>
<path fill="none" stroke="grey" stroke-width="2" d="M69.81,-359.7C77.81,-351.22 87.57,-340.86 96.32,-331.58"/>
<polygon fill="grey" stroke="grey" stroke-width="2" points="99.06,-333.78 103.37,-324.1 93.97,-328.98 99.06,-333.78"/>
</g>
<!-- 7&#45;&gt;6 -->
<g id="edge8" class="edge">
<title>7&#45;&gt;6</title>
<path fill="none" stroke="grey" stroke-width="2" d="M103.19,-431.7C95.19,-423.22 85.43,-412.86 76.68,-403.58"/>
<polygon fill="grey" stroke="grey" stroke-width="2" points="79.03,-400.98 69.63,-396.1 73.94,-405.78 79.03,-400.98"/>
</g>
<!-- 8 -->
<g id="node9" class="node">
<title>8</title>
<path fill="none" stroke="#d8cb56" stroke-width="2" d="M236,-396C236,-396 137,-396 137,-396 131,-396 125,-390 125,-384 125,-384 125,-372 125,-372 125,-366 131,-360 137,-360 137,-360 236,-360 236,-360 242,-360 248,-366 248,-372 248,-372 248,-384 248,-384 248,-390 242,-396 236,-396"/>
<text text-anchor="middle" x="186.5" y="-375.5" font-family="sans" font-size="10.00">filter_unmapped_bam</text>
</g>
<!-- 7&#45;&gt;8 -->
<g id="edge10" class="edge">
<title>7&#45;&gt;8</title>
<path fill="none" stroke="grey" stroke-width="2" d="M136.06,-431.7C144.18,-423.22 154.09,-412.86 162.97,-403.58"/>
<polygon fill="grey" stroke="grey" stroke-width="2" points="165.74,-405.75 170.13,-396.1 160.69,-400.91 165.74,-405.75"/>
</g>
<!-- 8&#45;&gt;4 -->
<g id="edge7" class="edge">
<title>8&#45;&gt;4</title>
<path fill="none" stroke="grey" stroke-width="2" d="M169.94,-359.7C161.82,-351.22 151.91,-340.86 143.03,-331.58"/>
<polygon fill="grey" stroke="grey" stroke-width="2" points="145.31,-328.91 135.87,-324.1 140.26,-333.75 145.31,-328.91"/>
</g>
</g>
</svg>
